<?xml version="1.0" encoding="utf-8"?>
<!-- Generator: Adobe Illustrator 25.2.0, SVG Export Plug-In . SVG Version: 6.00 Build 0)  -->
<svg version="1.1" id="Layer_1" xmlns="http://www.w3.org/2000/svg" xmlns:xlink="http://www.w3.org/1999/xlink" x="0px" y="0px"
	 width="455px" height="100px" viewBox="0 0 455 100" style="enable-background:new 0 0 455 100;" xml:space="preserve">
<style type="text/css">
	.st0{fill:#FFFFFF;}
	.st1{fill:#1F145D;}
	.st2{fill:#1D1761;}
	.st3{fill:#009FDA;}
	.st4{fill:#009B48;}
	.st5{fill:#F9E300;}
	.st6{fill:#FFF100;}
	.st7{fill:#1F1461;}
	.st8{fill:#D52B1E;}
	.st9{fill:none;}
</style>
<g>
	<g>
		<path class="st0" d="M755.6,63.2c-0.3-8.6-3.5-11-7.9-11h-5.5c-1.4,0-1.9,0.7-1.9,2v10.5h1.2c5.3,0,6.2-0.2,6.8-7.1h1.7v17.2h-1.7
			c-0.7-7.8-1.7-7.9-6.8-7.9h-1.2v11.4c0,2.4,1.1,2.8,2.4,2.8h4.2V83h-17v-1.7h3.3c1.3,0,2.4-0.4,2.4-2.7V54.8
			c0-2.4-1.1-2.7-2.4-2.7h-3.3v-1.7h27.5v12.8H755.6z"/>
		<path class="st0" d="M776,83.6c-2.9,0-4.1-1.9-4.6-3.6c-1.6,2.5-4,3.5-7.2,3.5c-2.6,0-5.3-1.8-5.3-4.9c0-4.5,2.6-6.2,8.1-7.7
			c3.2-0.8,4.3-1.2,4.3-2.9v-1.6c0-2.9-1.6-4.8-4.2-4.8c-1.6,0-3.1,0.6-4.2,2.1c1.1,0.8,2,1.8,2,3.5c0,1.6-1.2,2.4-2.1,2.4
			c-2.4,0-3-2.1-3-3.6c0-3,3.1-6.3,7.8-6.3c4.9,0,8,3.4,8,5.7V79c0,0.8,0.5,1.8,1.6,1.8c1.1,0,1.7-0.9,1.7-2.2V72h2v6.8
			C780.8,82.1,778.4,83.6,776,83.6z M771.3,71.3c-0.7,0.4-3.2,1.2-4,1.5c-3,0.9-4.3,2.5-4.3,5c0,1.9,0.6,3.5,2.9,3.5
			c3.6,0,5.4-3.4,5.4-5.9V71.3z"/>
		<path class="st0" d="M793.6,83.6c-7.2,0-10.5-5.5-10.5-11c0-6.1,4-13.1,11.1-13.1c5.1,0,7.8,3.6,7.8,6.3c0,2.4-1.6,4.1-3.5,4.1
			c-1.6,0-2.4-1.1-2.4-2.2c0-1.3,0.9-2.8,3.1-3.6c-1.1-1.5-2.4-2.4-4.8-2.4c-4.2,0-6.6,4.4-6.6,10.3c0,7,2.9,9.5,6.3,9.5
			c5.4,0,6.6-4.8,6.9-8.1h1.9C802.4,79.6,799.7,83.6,793.6,83.6z"/>
		<path class="st0" d="M825.4,83c-1.6,0-3-1.1-3-2.8v-1.1c-1.3,2.4-3.4,4.4-7.5,4.4c-4.9,0-7-3.9-7-6.3V64.6c0-2.4-1.1-2.8-2.4-2.8
			H804v-1.6h8.4v17c0,1.1,0.3,4,3.4,4c4.3,0,6.6-4,6.6-8.7v-7.9c0-2.4-1-2.8-2.4-2.8h-2.6v-1.6h9.5v18.3c0,2.4,1,2.8,2.4,2.8h2.2V83
			H825.4z"/>
		<path class="st0" d="M832.6,83v-1.6h2.2c1.4,0,2.4-0.4,2.4-2.7V53.1c0-2.4-1.1-2.7-2.4-2.7h-2.2v-1.6h9v30c0,2.3,1,2.7,2.4,2.7
			h2.1V83H832.6z"/>
		<path class="st0" d="M856.5,83.4c-2.2,0-5.2-1.4-5.7-4.5V62.3h-3.4v-1.8c3.2-0.7,5.5-2.5,5.7-10.2h2v9.9h6.8v2.1h-6.8v14.9
			c0,2.2,0.9,3.4,2.8,3.4c2,0,3.1-1.6,3.1-3.5v-6.9h2v7.7C862.9,80.5,860.7,83.4,856.5,83.4z"/>
		<path class="st0" d="M888.2,61.8c-1.6,0-2.7,1-3.5,2.8l-8.6,20.7c-2.4,5.9-4.2,9.3-8.2,9.3c-2.2,0-3.9-1.7-3.9-4.1
			c0-1.8,0.9-3.7,2.9-3.7c1.1,0,2.2,1.2,2.2,2.7c0,1.1-0.5,2.3-1.5,3.1c0.2,0.1,0.5,0.1,0.7,0.1c2.6,0,5.3-4.5,6.7-10.5l-6.2-17.6
			c-0.8-2.3-2.2-2.8-3.7-2.8H864v-1.6h12.9v1.6h-1.9c-1.4,0-2.5,0.6-1.7,2.9l4.3,12.4l4.7-11.6c0.7-1.8,0.7-3.7-1.5-3.7H879v-1.6h10
			v1.6H888.2z"/>
		<path class="st0" d="M745.7,133.2c-9.1,0-14.2-8.8-14.2-16.6c0-9.5,6-17.5,14.2-17.5c10.5,0,14.4,10.8,14.4,16.9
			C760.2,126.9,753.7,133.2,745.7,133.2z M746,101.2c-7,0-9.5,7.4-9.5,15.3c0,11.8,5.5,14.4,9.6,14.4c5.5,0,8.9-5.9,8.9-14.1
			C755.1,110.6,753.4,101.2,746,101.2z"/>
		<path class="st0" d="M777.4,111.7h-5.4v16.4c0,2.4,1,2.7,2.4,2.7h2.6v1.6h-14.1v-1.6h2.1c1.4,0,2.4-0.4,2.4-2.7v-16.4h-4.3v-2.1
			h4.2c-0.3-1.5-0.7-3.7-0.7-4.7c0-4.2,2.8-7.9,7.4-7.9c3.1,0,4.7,2.4,4.7,3.9c0,2.5-1.8,3.4-2.9,3.4c-1,0-2.2-0.7-2.2-2.1
			c0-1.2,0.8-2.1,2.2-2.7c-0.3-0.4-1-0.6-1.4-0.6c-2.4,0-3.7,1.8-3.7,4.6c0,2,0.5,4.4,0.9,6.1h5.6V111.7z"/>
		<path class="st0" d="M729.8,181.9v-1.7h3.3c1.3,0,2.4-0.4,2.4-2.7v-23.7c0-2.4-1.1-2.7-2.4-2.7h-3.3v-1.7h27.3v12.4h-1.7
			c-0.8-8.7-3.5-10.5-7.8-10.5h-5.5c-1.2,0-2,0.4-2,2.2V164h1.2c5.1,0,6.1,0,6.8-7.9h1.6v18h-1.6c-0.7-7.9-1.7-7.9-6.8-7.9h-1.2
			v11.6c0,1.9,0.8,2.2,2,2.2h7.2c4.3,0,6.4-2.4,7.3-10.8h1.7v12.7H729.8z"/>
		<path class="st0" d="M775,181.9v-1.6h1.6c1.4,0,2.4-0.4,2.4-2.8v-12.4c0-1.1-0.3-4-3.4-4c-4.3,0-6.6,4.7-6.6,9.4v7
			c0,2.4,1,2.8,2.4,2.8h1.6v1.6h-13v-1.6h2.2c1.4,0,2.4-0.4,2.4-2.8v-14c0-2.4-1.1-2.8-2.4-2.8H760v-1.6h8.6l0.3,4.4
			c1.3-2.5,3.5-4.8,7.5-4.8c4.1,0,6.6,2.9,7,5.5v13.2c0,2.3,1,2.8,2.4,2.8h2.2v1.6H775z"/>
		<path class="st0" d="M809.2,160c-1.5,0-2-1.4-2.3-2.2c-0.8,0.5-1.3,1.7-0.9,2.5c2,1.6,3,4.1,3,6.7c0,2.9-2.6,8-8.7,8
			c-2,0-3.5-0.5-5-1.2c-0.3-0.1-0.7-0.2-1-0.2c-1.5,0-2.1,1.3-2.1,2.2c0,1.6,1.4,2.9,3.2,2.9c3.1,0,5.5-0.3,7.3-0.3
			c4.4,0,8.3,2.7,8.3,6.9c0,4.7-4.8,8.1-10,8.1c-7.4,0-11.3-3.3-11.3-6.4c0-2.5,1.8-4.3,3.9-5.4c-2.6-0.8-3.9-2.7-3.9-4.8
			c0-1.8,1.3-3.8,3.3-4.9c-1.3-1.6-1.9-3.6-1.9-5.5c0-3,2.1-8,9.1-8c1.6,0,3,0.3,4.1,0.8c0.6-1.8,1.7-4.1,4.2-4.1
			c1.5,0,2.8,1.4,2.8,2.7C811.2,159.5,810.2,160,809.2,160z M800.8,181.8c-5,0-7.7,2.1-7.7,5c0,3.5,4.2,4.9,7,4.9c5.6,0,8-2.8,8-5.4
			C808.1,184,806.1,181.8,800.8,181.8z M800.3,160.3c-3.2,0-5.1,2.5-5.1,6.9c0,4.4,2.4,6,4.7,6c1.9,0,4.8-1,4.8-6.9
			C804.7,162.6,803.1,160.3,800.3,160.3z"/>
		<path class="st0" d="M812.7,181.9v-1.6h2.2c1.4,0,2.4-0.4,2.4-2.7v-14.1c0-2.4-1.1-2.8-2.4-2.8h-2.2v-1.6h9v18.4
			c0,2.4,1,2.7,2.4,2.7h2.2v1.6H812.7z M819,153.7c-1.5,0-2.8-1.4-2.8-3.1s1.3-3,2.8-3s2.7,1.3,2.7,3S820.5,153.7,819,153.7z"/>
		<path class="st0" d="M842.6,181.9v-1.6h1.6c1.4,0,2.4-0.4,2.4-2.8v-12.4c0-1.1-0.3-4-3.4-4c-4.3,0-6.6,4.7-6.6,9.4v7
			c0,2.4,1,2.8,2.4,2.8h1.6v1.6h-13v-1.6h2.2c1.4,0,2.4-0.4,2.4-2.8v-14c0-2.4-1.1-2.8-2.4-2.8h-2.2v-1.6h8.6l0.3,4.4
			c1.3-2.5,3.5-4.8,7.5-4.8c4.1,0,6.6,2.9,7,5.5v13.2c0,2.3,1,2.8,2.4,2.8h2.2v1.6H842.6z"/>
		<path class="st0" d="M867.4,182.6c-7.9,0-10.8-6.2-10.8-10.9c0-6.4,3.7-13.3,10.4-13.3c5.9,0,9.1,5.3,9.2,11.7l-0.7,0.8h-14.4
			c0,6,2.4,9.8,7,9.8c4.9,0,6.7-4,6.6-7.1h1.8C876.6,177.9,874.1,182.6,867.4,182.6z M867.1,160.4c-3.2,0-5.5,3.3-6,8.6h10.4
			C872,165.5,870.7,160.4,867.1,160.4z"/>
		<path class="st0" d="M890.4,182.6c-7.9,0-10.8-6.2-10.8-10.9c0-6.4,3.7-13.3,10.4-13.3c5.9,0,9.1,5.3,9.2,11.7l-0.7,0.8h-14.4
			c0,6,2.4,9.8,7,9.8c4.9,0,6.7-4,6.6-7.1h1.8C899.6,177.9,897.1,182.6,890.4,182.6z M890.1,160.4c-3.2,0-5.5,3.3-6,8.6h10.4
			C895,165.5,893.7,160.4,890.1,160.4z"/>
		<path class="st0" d="M918,166.5c-1.6,0-2.4-1.3-2.4-2.5c0-1.8,1-3,2.5-3.6c-3.8-0.8-7.3,3.8-7.3,10v7.1c0,2.3,1,2.8,2.4,2.8h2.6
			v1.6h-14v-1.6h2.2c1.4,0,2.4-0.5,2.4-2.8v-14c0-2.4-1-2.8-2.4-2.8h-2.2v-1.6h8.6l0.2,4.1c1.1-2.6,3.5-4.7,6.6-4.7
			c2.2,0,3.7,1.8,3.7,4.2C921,164.8,919.9,166.5,918,166.5z"/>
		<path class="st0" d="M922.4,181.9v-1.6h2.2c1.4,0,2.4-0.4,2.4-2.7v-14.1c0-2.4-1.1-2.8-2.4-2.8h-2.2v-1.6h9v18.4
			c0,2.4,1,2.7,2.4,2.7h2.2v1.6H922.4z M928.7,153.7c-1.5,0-2.8-1.4-2.8-3.1s1.3-3,2.8-3s2.7,1.3,2.7,3S930.2,153.7,928.7,153.7z"/>
		<path class="st0" d="M952.3,181.9v-1.6h1.6c1.4,0,2.4-0.4,2.4-2.8v-12.4c0-1.1-0.3-4-3.4-4c-4.3,0-6.6,4.7-6.6,9.4v7
			c0,2.4,1,2.8,2.4,2.8h1.6v1.6h-13v-1.6h2.2c1.4,0,2.4-0.4,2.4-2.8v-14c0-2.4-1.1-2.8-2.4-2.8h-2.2v-1.6h8.6l0.3,4.4
			c1.3-2.5,3.5-4.8,7.5-4.8c4.1,0,6.6,2.9,7,5.5v13.2c0,2.3,1,2.8,2.4,2.8h2.2v1.6H952.3z"/>
		<path class="st0" d="M986.4,160c-1.5,0-2-1.4-2.3-2.2c-0.8,0.5-1.3,1.7-0.9,2.5c2,1.6,3,4.1,3,6.7c0,2.9-2.6,8-8.7,8
			c-2,0-3.5-0.5-5-1.2c-0.3-0.1-0.7-0.2-1-0.2c-1.5,0-2.1,1.3-2.1,2.2c0,1.6,1.4,2.9,3.2,2.9c3.1,0,5.5-0.3,7.3-0.3
			c4.4,0,8.3,2.7,8.3,6.9c0,4.7-4.8,8.1-10,8.1c-7.4,0-11.3-3.3-11.3-6.4c0-2.5,1.8-4.3,3.9-5.4c-2.6-0.8-3.9-2.7-3.9-4.8
			c0-1.8,1.3-3.8,3.3-4.9c-1.3-1.6-1.9-3.6-1.9-5.5c0-3,2.1-8,9.1-8c1.6,0,3,0.3,4.1,0.8c0.6-1.8,1.7-4.1,4.2-4.1
			c1.5,0,2.8,1.4,2.8,2.7C988.5,159.5,987.4,160,986.4,160z M978,181.8c-5,0-7.7,2.1-7.7,5c0,3.5,4.2,4.9,7,4.9c5.6,0,8-2.8,8-5.4
			C985.3,184,983.4,181.8,978,181.8z M977.5,160.3c-3.2,0-5.1,2.5-5.1,6.9c0,4.4,2.4,6,4.7,6c1.9,0,4.8-1,4.8-6.9
			C981.9,162.6,980.3,160.3,977.5,160.3z"/>
		<path class="st0" d="M994.6,182.4c-1.7,0-3.2-1.5-3.2-3.2c0-1.7,1.4-3.2,3.2-3.2s3.2,1.5,3.2,3.2
			C997.7,181,996.3,182.4,994.6,182.4z"/>
	</g>
	<rect class="st0" width="694.8" height="280.7"/>
	<path class="st1" d="M279.6,50.7h2.7v27.6c0,2.5-1.1,2.9-2.5,2.9h-4.5V83h19v-1.8h-4.5c-1.4,0-2.5-0.4-2.5-2.9V50.7h2.7
		c6.1,0,7.1,2.4,8,11.6h1.7V48.7h-29.7v13.6h1.7C272.5,53.1,273.5,50.7,279.6,50.7"/>
	<path class="st1" d="M314.9,81.3h-1.7c-1.5,0-2.6-0.4-2.6-2.9v-7.5c0-5,3-9.8,7.5-9.8c3.3,0,3.6,3,3.6,4.1v13.2
		c0,2.5-1.1,2.9-2.6,2.9h-1.7V83h13.6v-1.7h-2.3c-1.5,0-2.5-0.4-2.5-2.9v-14c-0.4-2.8-3-5.8-7.3-5.8c-4.2,0-7.1,2.2-8.4,4.8V48.7
		h-9.4v1.7h2.2c1.5,0,2.6,0.4,2.6,2.9v25.1c0,2.4-1,2.9-2.5,2.9h-2.3V83h13.6V81.3z"/>
	<path class="st1" d="M343.5,83.5c7,0,9.7-4.9,9.5-9.4h-1.9c0.1,3.2-1.8,7.4-7,7.4c-4.8,0-7.3-3.5-7.3-9.8H352l0.7-0.8
		c-0.1-6.6-3.5-12.3-9.6-12.3c-7.1,0-10.9,7-10.9,13.7C332.1,77.3,335.1,83.5,343.5,83.5 M343.2,60.7c3.7,0,5.1,5.3,4.7,9h-11
		C337.4,64.2,339.8,60.7,343.2,60.7"/>
	<path class="st1" d="M272.7,102.7v21.1c0.5,4.1,4.2,9.2,12.4,9.2c9.9,0,12.1-7.4,12.1-12.1v-18.3c0-2.5,1-2.9,2.5-2.9h3.4V98h-15
		v1.8h4c1.4,0,2.5,0.4,2.5,2.9V121c0,6.8-4,9.8-8.8,9.8c-3.7,0-8.2-2.2-8.2-8.7v-19.4c0-2.5,1.1-2.9,2.5-2.9h4.2V98h-17.5v1.8h3.4
		C271.7,99.9,272.7,100.3,272.7,102.7"/>
	<path class="st1" d="M330.7,130.6h-1.9c-1.5,0-2.5-0.5-2.5-2.9v-13.8c-0.4-2.8-3-5.8-7.3-5.8c-4.2,0-6.5,2.3-7.9,5l-0.3-4.7h-9.1
		v1.7h2.3c1.5,0,2.6,0.4,2.6,2.9v14.7c0,2.5-1,2.9-2.5,2.9h-2.3v1.7h13.6v-1.7h-1.7c-1.5,0-2.6-0.4-2.6-2.9v-7.3c0-5,2.4-9.9,7-9.9
		c3.3,0,3.6,3,3.6,4.1v13c0,2.5-1.1,2.9-2.6,2.9h-1.7v1.7h13.2V130.6z"/>
	<path class="st1" d="M335.5,100.9c0,1.8,1.3,3.2,2.9,3.2c1.6,0,2.9-1.4,2.9-3.2c0-1.8-1.3-3.2-2.9-3.2
		C336.8,97.7,335.5,99.1,335.5,100.9"/>
	<path class="st1" d="M336.6,113v14.8c0,2.5-1.1,2.9-2.6,2.9h-1.8v1.7H346v-1.7h-2.3c-1.5,0-2.6-0.4-2.6-2.9v-19.4h-9.4v1.7h2.3
		C335.5,110.1,336.6,110.5,336.6,113"/>
	<path class="st1" d="M356.2,110.1h2v-1.7h-14.1v1.7h1.7c1.6,0,2.9,0.6,3.8,3l7.2,19.3h2l7.7-19.3c0.7-1.9,2-3,3.7-3h0.8v-1.7h-10.2
		v1.7h1.7c2.3,0,2.3,1.9,1.6,3.8l-4.8,12.6l-4.9-13.4C353.5,110.8,354.8,110.1,356.2,110.1"/>
	<path class="st1" d="M382.5,133.1c7,0,9.7-4.9,9.5-9.4h-1.9c0.1,3.2-1.8,7.4-7,7.4c-4.8,0-7.3-4-7.3-10.3H391l0.7-0.8
		c-0.1-6.6-3.5-12.3-9.6-12.3c-7.1,0-10.9,7.2-10.9,13.9C371.1,126.7,374.1,133.1,382.5,133.1 M382.2,109.8c3.7,0,5.1,5.3,4.7,9h-11
		C376.4,113.3,378.8,109.8,382.2,109.8"/>
	<path class="st1" d="M408.6,130.6h-2.8c-1.5,0-2.6-0.5-2.6-2.9v-7.4c0-6.5,3.7-11.3,7.6-10.5c-1.5,0.6-2.6,1.8-2.6,3.8
		c0,1.2,0.9,2.6,2.6,2.6c1.9,0,3.1-1.8,3.1-4c0-2.6-1.6-4.4-3.9-4.4c-3.2,0-5.7,2.3-6.9,5l-0.3-4.3h-9v1.7h2.3
		c1.5,0,2.6,0.4,2.6,2.9v14.7c0,2.4-1.1,2.9-2.6,2.9h-2.3v1.7h14.7V130.6z"/>
	<path class="st1" d="M426.6,133.1c4.8,0,8.2-3,8.2-7.4c0-8.1-14-6.2-14-12.2c0-1.8,1.3-3.6,4.1-3.6c3.4,0,5.9,2.4,7,7.4h1.6v-9.2
		h-1.2l-1.5,2.2c-1.5-1.6-3.8-2.6-6-2.6c-4.8,0-7.7,3.3-7.7,7.4c0,8.1,13.7,6.7,13.7,12.3c0,2.4-2.2,3.5-4.3,3.5
		c-4.6,0-7.3-4.9-7.7-8.6h-1.6v10.4h1.6l1.3-2.8C421.1,131.6,423.9,133.1,426.6,133.1"/>
	<path class="st1" d="M439.6,130.6h-1.8v1.7h13.8v-1.7h-2.3c-1.5,0-2.6-0.4-2.6-2.9v-19.4h-9.4v1.7h2.3c1.5,0,2.6,0.4,2.6,2.9v14.8
		C442.1,130.2,441,130.6,439.6,130.6"/>
	<path class="st1" d="M443.9,104.1c1.6,0,2.9-1.4,2.9-3.2c0-1.8-1.3-3.2-2.9-3.2c-1.6,0-2.9,1.4-2.9,3.2
		C441,102.6,442.3,104.1,443.9,104.1"/>
	<path class="st1" d="M456.5,128c0.5,3.2,3.8,4.8,6,4.8c4.5,0,6.8-3.1,6.8-5.9v-8.1h-2.1v7.2c0,2.1-1.2,3.7-3.2,3.7
		c-1.9,0-2.9-1.3-2.9-3.6v-15.6h7.1v-2.2H461V98h-2.1c-0.3,8.1-2.7,10-6,10.7v1.9h3.6V128z"/>
	<path class="st1" d="M485.7,108.4v1.7h1.9c2.3,0,2.3,1.9,1.6,3.8l-4.9,12.2l-4.6-13c-0.8-2.4,0.4-3,1.8-3h2v-1.7h-13.6v1.7h1.1
		c1.6,0,3,0.5,3.9,2.9l6.5,18.5c-1.6,6.9-4.9,11.8-7.8,10.8c1-0.8,1.6-2,1.6-3.2c0-1.6-1.2-2.8-2.3-2.8c-2.1,0-3.1,2-3.1,3.9
		c0,2.5,1.8,4.3,4.1,4.3c4.3,0,6.1-3.5,8.7-9.7l9-21.8c0.8-1.9,2-2.9,3.7-2.9h0.8v-1.7H485.7z"/>
	<path class="st1" d="M285.1,182.5c8.4,0,15.2-6.6,15.2-18c0-6.4-4.1-17.8-15.2-17.8c-8.6,0-14.9,8.5-14.9,18.4
		C270.2,173.3,275.5,182.5,285.1,182.5 M285.4,149c7.7,0,9.6,9.8,9.6,16.4c0,8.6-3.7,14.8-9.4,14.8c-4.3,0-10.1-2.8-10.1-15.1
		C275.5,156.8,278,149,285.4,149"/>
	<path class="st1" d="M314.7,152.1c0,1.5,1.2,2.2,2.2,2.2c1.2,0,3.1-1,3.1-3.6c0-1.6-1.7-4-4.9-4c-4.9,0-7.8,3.8-7.8,8.3
		c0,1,0.3,3.3,0.7,4.9h-4.4v2.2h4.6v15.1c0,2.5-1.1,2.9-2.6,2.9h-2.3v1.7h14.8v-1.7h-2.8c-1.5,0-2.6-0.4-2.6-2.9v-15.1h5.7v-2.2
		h-5.9c-0.5-1.8-0.9-4.3-0.9-6.4c0-2.9,1.4-4.8,3.9-4.8c0.4,0,1.2,0.2,1.5,0.6C315.5,149.9,314.7,150.9,314.7,152.1"/>
	<path class="st1" d="M276.5,204.4c0-1.9,1.4-6,7.1-6c6,0,8.9,5.2,9.6,12.4h1.8v-14.5h-1.4L292,200c-2-2.2-4.5-3.8-9-3.8
		c-6.8,0-10.1,5.2-10.1,9.5c0,14,20.2,6.9,20.2,18.3c0,3.8-2.8,6-6.8,6c-7.1,0-10.4-7-11.2-13.9h-1.7v15.2h1.4l2.1-4
		c1.4,2.4,5.2,4.7,9.7,4.7c5.1,0,10.4-3.5,10.4-10.4C297.1,208.7,276.5,214.9,276.5,204.4"/>
	<path class="st1" d="M323.8,226.7v-13.8c-0.4-2.8-3-5.8-7.3-5.8c-4.2,0-6.5,2.2-7.9,4.8v-16.6h-9.4v1.7h2.2c1.5,0,2.6,0.4,2.6,2.9
		v26.9c0,2.4-1,2.9-2.5,2.9h-2.3v1.7h13.6v-1.7h-1.7c-1.5,0-2.6-0.4-2.6-2.9v-7.3c0-5,2.4-9.8,7-9.8c3.3,0,3.6,3,3.6,4.1v13
		c0,2.5-1.1,2.9-2.6,2.9h-1.7v1.7h13.6v-1.7h-2.3C324.8,229.6,323.8,229.2,323.8,226.7"/>
	<path class="st1" d="M341.8,230.1c-4.8,0-7.3-4-7.3-10.3h15.2l0.7-0.8c-0.1-6.6-3.5-12.2-9.6-12.2c-7.1,0-10.9,7.2-10.9,13.9
		c0,5,3,11.4,11.4,11.4c7,0,9.7-4.9,9.5-9.4h-1.9C348.8,225.9,346.9,230.1,341.8,230.1 M340.8,208.8c3.7,0,5.1,5.3,4.7,9h-11
		C335.1,212.3,337.4,208.8,340.8,208.8"/>
	<path class="st1" d="M364.9,199.8c0,1.5,1.2,2.3,2.3,2.3c1.5,0,3.1-1.2,3.1-3.6c0-2.1-2.7-4.3-6.1-4.3c-4.9,0-8.4,4-8.4,8.4
		c0,1,0.3,3.4,0.7,4.9h-3.9v2.2h4v17.2c0,2.5-1.1,2.9-2.6,2.9h-1.7v1.7h13.7v-1.7h-2.3c-1.5,0-2.6-0.4-2.6-2.9v-17.2h5.1v-2.2H361
		c-0.4-1.8-0.9-4.3-0.9-6.4c0-2.5,1.5-5,4.5-5c1.2,0,2.3,0.5,2.6,0.9C365.7,197.6,364.9,198.6,364.9,199.8"/>
	<path class="st1" d="M392.9,226.7v-19.4h-9.4v1.8h2.3c1.5,0,2.6,0.4,2.6,2.9v14.7c0,2.5-1.1,2.9-2.6,2.9h-2v1.7h13.5v-1.7h-1.7
		C394,229.6,392.9,229.2,392.9,226.7"/>
	<path class="st1" d="M383.3,195.8c1.6,0,3.1,0.4,4.1,1.6c-1.1,0.6-1.8,1.9-1.8,3.1c0,1.6,1.2,2.9,2.9,2.9c1.9,0,3.3-1.4,3.3-4
		c0-2.8-4-5.6-8.5-5.6c-9.1,0-12.4,7.1-11.2,13.5h-3.9v2.2h4v17.2c0,2.5-1.1,2.9-2.6,2.9H368v1.7h14v-1.7h-2.5
		c-1.5,0-2.6-0.4-2.6-2.9v-17.2h4.9v-2.2h-5.1C375.3,200.4,377.8,195.8,383.3,195.8"/>
	<path class="st1" d="M410.8,230.1c-4.8,0-7.3-4-7.3-10.3h15.2l0.7-0.8c-0.1-6.6-3.5-12.2-9.6-12.2c-7.1,0-10.9,7.2-10.9,13.9
		c0,5,3,11.4,11.4,11.4c7,0,9.7-4.9,9.5-9.4h-1.9C417.8,225.9,415.9,230.1,410.8,230.1 M409.9,208.8c3.7,0,5.1,5.3,4.7,9h-11
		C404.1,212.3,406.5,208.8,409.9,208.8"/>
	<path class="st1" d="M430.4,226.7v-31.5H421v1.7h2.2c1.5,0,2.6,0.4,2.6,2.9v26.9c0,2.5-1.1,2.9-2.6,2.9H421v1.7h14.2v-1.7H433
		C431.5,229.6,430.4,229.1,430.4,226.7"/>
	<path class="st1" d="M459.4,226.6v-31.4h-12.2v1.7h5c1.5,0,2.6,0.4,2.6,2.9v10c-1.4-2-3.5-3.1-5.7-3.1c-7.6,0-11.2,8-11.2,12.8
		c0,6.7,4.2,12.3,10.5,12.3c3.4,0,5.7-1.9,6.9-4c0.1,1.8,1.4,3.5,3.1,3.5h5.8v-1.7H462C460.5,229.6,459.4,229.1,459.4,226.6
		 M448.9,229.5c-3.4,0-6.1-3.2-6.1-10.6c0-5.5,2.7-10.1,6.3-10.1c4.6,0,6.1,5.9,6.1,10.9C455.2,225.9,453.1,229.5,448.9,229.5"/>
	<path class="st1" d="M470.6,225.2c-1.8,0-3.3,1.5-3.3,3.3c0,1.8,1.5,3.4,3.3,3.4c1.8,0,3.3-1.5,3.3-3.4
		C473.9,226.7,472.5,225.2,470.6,225.2"/>
	<path class="st2" d="M94.2,219c-2.1-1.7-2.7-4.9-2.3-7.1c0.5-2.4,2.3-3.7,4.2-2.2c0.8,0.7,1.2,1.3,1.6,2.3l0.4-0.7l0.3,0.3
		l-0.9,3.7L97,215c0.2-2.1,0-3.6-1.1-4.5c-1.1-0.9-2,0.2-2.5,2.7c-0.4,2.3,0,4.4,1.1,5.2c1.2,0.9,2,0.7,2.5-1.1l0.5,0.4
		C97,219.8,95.6,220.1,94.2,219"/>
	<path class="st2" d="M101.9,223.7c-2.6-1.2-3.3-4.2-2.9-6.2c0.4-2.2,2.3-4.1,4.8-2.9c3,1.4,3.4,4.5,3.1,6.4
		C106.3,223.3,104.5,224.9,101.9,223.7 M103.7,215.3c-1.1-0.5-2.3,0.1-2.9,3.1c-0.6,3.1,0.4,4.3,1.3,4.7c1.4,0.6,2.3-0.6,2.7-2.8
		C105.4,217.5,104.8,215.8,103.7,215.3"/>
	<path class="st2" d="M116.3,225c-0.3-0.1-0.6-0.1-0.8,0.5l-0.7,3.2l-0.5-0.1l-0.4-1.2c-0.5,0.7-1.4,1-2.6,0.5
		c-2.4-0.8-3.5-3.4-3-5.9c0.5-2.4,2.6-4.2,5.1-3.4c1.1,0.4,1.7,1,2.1,1.7l0.6-0.8l0.4,0.1l-0.9,3.7l-0.5-0.1
		c0.2-1.8-0.1-3.3-1.6-3.9c-0.7-0.3-2.4-0.1-3.1,3.3c-0.5,2.6,0.3,4.1,1.5,4.6c1,0.4,1.4-0.1,1.7-0.6l0.3-1.4c0.1-0.6-0.1-0.9-0.4-1
		l-0.8-0.3l0.1-0.6l4.2,1.2l-0.1,0.6L116.3,225z"/>
	<path class="st2" d="M127,222.6c-0.4-0.1-0.6,0-0.7,0.7l-1.1,8l-1-0.2l-3.8-7.6l-0.9,5.3c-0.1,0.6,0.2,0.9,0.5,1l0.8,0.2l-0.1,0.6
		l-3.6-0.8l0.1-0.6l0.7,0.2c0.4,0.1,0.6,0,0.7-0.7l1.1-6.4c0.1-0.6-0.1-0.8-0.6-0.9l-0.7-0.2l0.1-0.6l2.8,0.6l3.5,7l0.6-5
		c0.1-0.7-0.2-0.8-0.6-0.9l-0.8-0.1l0.1-0.6l3.7,0.6l-0.1,0.6L127,222.6z"/>
	<path class="st2" d="M132.1,232.1c-2.8-0.2-4-2.9-3.9-5.1c0.2-2.3,1.9-4.9,4.6-4.7c3.3,0.2,4.2,3.2,4,5.2
		C136.7,230,135,232.3,132.1,232.1 M132.9,223c-1.2-0.1-2.4,1-2.6,4.1c-0.3,3.3,0.9,4.1,2,4.2c1.5,0.1,2.3-1.4,2.5-3.8
		C135,224.6,134.2,223.1,132.9,223"/>
	<path class="st2" d="M142.5,232.2c-1.4,0.1-2.1-0.4-2.5-1.1l-0.5,1l-0.4,0l0-4l0.5,0c0.2,1.9,0.9,3.5,2.8,3.4
		c0.8,0,1.5-0.5,1.5-1.4c0-2.8-5-0.8-4.9-5c0-0.9,0.8-2.6,2.9-2.7c1.2,0,1.8,0.4,2.3,0.9l0.4-1l0.4,0l0,3.8l-0.6,0
		c-0.1-2-0.8-3.1-2.4-3c-1.1,0-1.5,0.9-1.5,1.5c0,2.3,5.1,0.9,5,4.6C145.5,230.7,144.4,232.1,142.5,232.2"/>
	<path class="st2" d="M152.2,231.2c-2.8,0.4-4.4-1.7-4.6-4c-0.2-2.5,1.4-5.4,3.9-5.7c1.1-0.1,1.8,0,2.5,0.5l0.3-1l0.4-0.1l0.3,4.1
		l-0.6,0.1c-0.3-2-1.2-3.1-2.7-2.9c-1.4,0.2-2.2,2.1-2,4.6c0.2,2.4,1.1,3.8,2.6,3.5c1.5-0.3,2.4-1.2,2.5-3.3l0.7-0.1
		C155.5,229.4,154.3,230.9,152.2,231.2"/>
	<path class="st2" d="M160.5,220.5c-0.3,0.1-0.5,0.3-0.5,0.8l0.2,2.8l0.2-0.1c1.4-0.4,1.5-0.5,1.6-2.7l0.5-0.1l0.3,5.1l-0.5,0.1
		c-0.3-2.1-0.4-2.1-1.9-1.7l-0.2,0.1l0.2,3.2c0,0.5,0.3,0.5,0.5,0.5c0.6-0.1,1-0.2,1.8-0.5c1.4-0.4,1.6-1,1.7-3.6l0.5-0.2l0.4,3.6
		c-3,1-5.3,1.6-8.3,2.4l0-0.6l0.8-0.2c0.3-0.1,0.6-0.3,0.6-1l-0.4-6.6c0-0.7-0.3-0.7-0.7-0.6l-0.8,0.2l0-0.6
		c2.9-0.8,5.7-1.6,7.7-2.2l0.4,3.5l-0.5,0.2c-0.4-2.4-1.1-2.6-2.2-2.3C161.3,220.2,160.8,220.4,160.5,220.5"/>
	<path class="st2" d="M167.4,227.1l-0.1-0.6l0.8-0.3c0.3-0.1,0.5-0.4,0.4-1.1l-0.8-6.3c-0.1-0.6-0.4-0.6-0.7-0.5l-0.8,0.3l-0.1-0.6
		l5.4-2.4c1.4-0.6,2.6-0.1,2.8,1.2c0.1,0.9-0.4,2.2-1.5,2.9c1,0.2,1.3,0.7,1.6,2.6c0.1,0.6,0.4,0.6,0.6,0.5c0.2-0.1,0.4-0.3,0.3-0.7
		l-0.3-1.8l0.6-0.3l0.4,1.9c0.1,0.7-0.3,1.5-1.5,2.1c-0.9,0.4-1.8,0.3-2-0.9c-0.3-1.9-0.7-2.5-1.7-2.1l-0.8,0.4l0.4,3.2
		c0.1,0.5,0.3,0.5,0.5,0.4l1.1-0.4l0.1,0.6C170.6,225.8,169,226.5,167.4,227.1 M170.5,216.8l-0.7,0.3c-0.3,0.1-0.4,0.3-0.3,0.6
		l0.4,3l0.9-0.4c1.4-0.6,1.7-1.9,1.7-2.6C172.3,216.2,171.3,216.5,170.5,216.8"/>
	<path class="st2" d="M182.3,208.7l0.9,3.1l-0.4,0.3c-0.6-2.2-1.2-2-2.1-1.3c-0.5,0.4-0.8,0.6-1.2,0.9c-0.3,0.2-0.4,0.4-0.3,0.9
		l0.6,2.6l0.3-0.2c1-0.8,1.1-1,0.8-3.1l0.4-0.3l1.1,4.7l-0.4,0.3c-0.5-1.9-0.6-1.9-1.8-1l-0.3,0.2l0.6,3c0.1,0.5,0.3,0.4,0.5,0.3
		c0.4-0.2,1.3-0.9,1.6-1.2c0.9-0.7,1.1-1.5,0.8-3.9l0.4-0.3l0.9,3.3c-1.8,1.7-4.6,3.7-6.9,5.2l-0.1-0.6l0.7-0.5
		c0.4-0.3,0.5-0.5,0.4-1.2l-1.2-6.1c-0.1-0.6-0.4-0.7-0.7-0.5l-0.7,0.5l-0.1-0.5C177.7,212.3,180.4,210.3,182.3,208.7"/>
	<path class="st2" d="M48.3,184.1c-0.6-0.8-0.9-1.9-0.5-2.9c0.8-1.6,0.8-2.5,0.2-3.5l-0.5-0.7l-1.4,2.5c-0.2,0.4-0.1,0.7,0.1,0.9
		l0.7,0.9l-0.2,0.5l-3.1-3.9l0.2-0.5l0.5,0.6c0.2,0.3,0.4,0.4,0.7-0.2l2.8-5.2c0.3-0.5,0.1-0.8-0.1-1.1l-0.5-0.6l0.2-0.5l3.5,4.4
		c0.9,1.2,1.2,2.9,0.7,4c-0.4,0.8-1.2,0.8-2,0.3c0.3,1.3,0.2,2-0.5,3.6c-0.2,0.5-0.2,0.7,0,0.9c0.1,0.2,0.3,0.2,0.5-0.1l0.7-1.6
		l0.5,0.6l-0.8,1.7C49.7,184.9,49.1,185.1,48.3,184.1 M49.9,174.4l-0.4-0.5c-0.2-0.2-0.3-0.2-0.4,0.1l-1.3,2.5l0.6,0.8
		c0.9,1.2,1.6,0.7,1.9,0.1C51,176.1,50.4,175.1,49.9,174.4"/>
	<path class="st2" d="M49.9,185.7l0.3-0.5l0.6,0.5c0.3,0.2,0.5,0.3,0.8-0.3l3-5.6c0.3-0.6,0.1-0.8-0.1-1l-0.6-0.5l0.3-0.5l5.9,4.9
		l-1.6,3l-0.4-0.3c0.9-2.2,0.6-3.1-0.2-3.8l-1-0.9c-0.2-0.2-0.4-0.2-0.7,0.2l-1.3,2.5l0.2,0.2c1,0.9,1.2,0.9,2.3-0.8l0.4,0.3
		l-2.3,4.4l-0.4-0.3c0.8-2,0.8-2.1-0.3-3l-0.2-0.2l-1.4,2.7c-0.2,0.5-0.1,0.7,0.1,0.8l1.4,1.1c0.8,0.7,1.5,0.6,2.8-1.3l0.4,0.3
		l-1.6,3.1L49.9,185.7z"/>
	<path class="st2" d="M63.9,195.4c-0.9-0.5-1.4-1.4-0.9-2.5c0.8-1.8,0.8-2.6-0.1-3.2l-0.7-0.4l-1.4,2.9c-0.2,0.5-0.1,0.6,0.2,0.8
		l1,0.5l-0.3,0.5l-4.4-2.4l0.2-0.5l0.7,0.4c0.3,0.2,0.6,0.2,0.9-0.4l2.7-5.8c0.3-0.6,0.1-0.8-0.2-1l-0.7-0.4l0.2-0.5l5,2.7
		c1.3,0.7,1.9,2.2,1.3,3.4c-0.4,0.9-1.4,1.2-2.5,1c0.6,1,0.5,1.7-0.3,3.5c-0.2,0.5-0.1,0.7,0.1,0.8c0.2,0.1,0.4,0.1,0.6-0.3l0.8-1.7
		l0.7,0.4L66,195C65.8,195.7,65.1,196,63.9,195.4 M64.9,186.1l-0.6-0.3c-0.3-0.1-0.4-0.1-0.5,0.2l-1.3,2.8l0.8,0.5
		c1.3,0.7,2.2,0,2.5-0.6C66.4,187.2,65.6,186.5,64.9,186.1"/>
	<path class="st2" d="M76.7,191c-0.4-0.1-0.7,0-1,0.5l-5.2,6.7l-0.8-0.3l0.2-8.6c0-0.7-0.1-0.9-0.4-1l-0.6-0.2l0.2-0.6l4.4,1.6
		l-0.2,0.6l-0.7-0.2c-0.3-0.1-0.8-0.1-0.7,0.6l-0.2,5.7l3.4-4.5c0.3-0.4,0.2-0.8-0.2-0.9l-0.5-0.2l0.2-0.6l2.9,1.1l-0.2,0.6
		L76.7,191z"/>
	<path class="st2" d="M81.8,201.4l0.2-0.6l0.7,0.1c0.5,0.1,0.7,0,0.8-0.6l1.6-5.4l-4.7,6.1l-0.8-0.2l-0.2-7.3l-1.9,5.3
		c-0.2,0.6,0,0.8,0.4,0.9l0.7,0.2l-0.2,0.6l-3.5-0.9l0.2-0.6l0.8,0.2c0.3,0.1,0.6,0,0.8-0.6l2.2-6.3c0.2-0.6,0-0.8-0.4-0.9l-0.8-0.2
		l0.2-0.6l3.5,0.9l0,6.7l4.4-5.7l3.4,0.6l-0.2,0.6l-0.8-0.1c-0.3-0.1-0.6,0-0.8,0.6l-1.9,6.3c-0.2,0.6,0,0.8,0.4,0.9l0.8,0.2
		l-0.2,0.6L81.8,201.4z"/>
	<path class="st2" d="M194.4,201.6c-2.7,0.6-4.6-1.5-5.2-3.7c-0.6-2.5,0.5-5.3,2.8-5.8c1-0.2,1.7,0,2.5,0.4l0.1-1l0.4-0.1l1,4
		l-0.6,0.1c-0.7-1.9-1.8-3-3.2-2.7c-1.3,0.3-1.7,2.1-1.1,4.6c0.6,2.4,1.9,3.7,3.2,3.4c1.4-0.3,2.1-1.3,1.8-3.3l0.6-0.1
		C197.4,199.8,196.4,201.2,194.4,201.6"/>
	<path class="st2" d="M201.7,199.4l-0.2-0.6l0.7-0.2c0.3-0.1,0.7-0.4,0.3-0.9l-0.9-1.3l-2.2,0.7l0,1.6c0,0.5,0.3,0.7,0.8,0.6
		l0.6-0.2l0.2,0.6l-3.2,1l-0.2-0.6l0.6-0.2c0.4-0.1,0.6-0.4,0.6-1l0.1-8.5l0.9-0.3l4.9,6.9c0.4,0.5,0.6,0.6,0.9,0.5l0.8-0.2l0.2,0.6
		L201.7,199.4z M199.5,193.3l0,3.2l1.8-0.6L199.5,193.3z"/>
	<path class="st2" d="M210.4,186.6c-0.4,0.2-0.5,0.5-0.5,1.1l0,8.8l-0.8,0.4l-5-6.6c-0.4-0.5-0.6-0.6-0.9-0.5l-0.6,0.3l-0.2-0.6
		l4.3-1.9l0.2,0.6l-0.6,0.3c-0.3,0.1-0.7,0.5-0.3,1l3.2,4.3l-0.1-5.7c0-0.6-0.3-0.7-0.7-0.5l-0.5,0.2l-0.2-0.6l2.9-1.3l0.2,0.6
		L210.4,186.6z"/>
	<path class="st2" d="M217,192.8c-1.1,0.7-1.8,0.5-2.5,0.1l-0.1,1.2l-0.3,0.2l-1.1-3.8l0.4-0.3c0.7,1.7,1.8,2.9,3.4,1.9
		c0.6-0.4,1.1-1.2,0.8-2c-0.8-2.6-4.4,1.6-5.6-2.5c-0.2-0.8-0.1-2.8,1.6-3.9c1-0.6,1.6-0.5,2.2-0.2l0.1-1.2l0.3-0.2l1.1,3.6
		l-0.5,0.3c-0.7-1.8-1.6-2.5-2.9-1.7c-0.9,0.6-1,1.5-0.9,2.1c0.6,2.2,4.5-1.5,5.5,2C219,190,218.5,191.9,217,192.8"/>
	<path class="st2" d="M222.9,188.3l-0.2-0.6l0.6-0.5c0.3-0.2,0.5-0.6,0.2-1.1l-0.9-1.1l-1.8,1.5l0.1,1.7c0,0.6,0.3,0.7,0.7,0.4
		l0.5-0.4l0.2,0.6l-2.6,2.1l-0.2-0.6l0.5-0.4c0.3-0.3,0.4-0.6,0.4-1.2l-0.6-9l0.7-0.6l4.6,5.7c0.4,0.5,0.5,0.5,0.8,0.3l0.6-0.5
		l0.2,0.6L222.9,188.3z M220.5,182.5l0.2,3.3l1.5-1.2L220.5,182.5z"/>
	<path class="st2" d="M229.3,182.3c-0.8,1-1.4,1.1-1.9,0.8l0.1,1.3l-0.2,0.3l-1.4-3.7l0.3-0.4c0.8,1.5,1.8,2.5,2.9,1
		c0.4-0.6,0.7-1.6,0.4-2.3c-1-2.5-3.3,2.9-4.7-0.9c-0.3-0.8-0.5-2.9,0.7-4.6c0.7-0.9,1.2-1,1.7-0.8l-0.1-1.3l0.2-0.3l1.4,3.5
		l-0.3,0.4c-0.8-1.7-1.6-2.2-2.5-1c-0.7,0.9-0.6,1.9-0.4,2.5c0.8,2.1,3.3-2.9,4.6,0.5C230.5,178.8,230.4,180.9,229.3,182.3"/>
	<path class="st1" d="M235.4,172.9c-1.6-1.7-4.5-5.6-6.1-12.3c-0.3-2.2-1.9-4.2-5.6-4.2c-4.4,0-8.2,2.5-10.3,4.8
		c-1.7,1.9-2.6,4-2.4,5.8c0.1,0.5,0.2,0.9,0.5,1.3l0,0l6.2,7.5c-9.7,7.7-21.7,11.4-32.7,13c17.9-17.6,29.7-41.7,29.7-76.1l0-63.9
		c-18.7-4.7-48.6-9.5-76.4-9.5c-27.8,0-57.7,4.8-76.4,9.5v63.9c0,34.3,11.7,58.3,29.4,75.9c-10.9-1.5-22.8-5-32.5-12.7l6.2-7.5l0,0
		c0.3-0.3,0.4-0.8,0.5-1.3c0.2-1.7-0.7-3.8-2.4-5.8c-2.1-2.3-5.9-4.8-10.3-4.8c-3.7,0-5.3,2-5.6,4.2c-1.6,6.7-4.5,10.6-6.1,12.3
		c-3.6,3.8-1.5,7.6,0.3,10.1c5.3,7.2,18.5,19.8,47.9,23.9c-0.8,2.5-1.8,4.7-2.8,6.9c-1.1,2.4-0.2,4.5,3.1,7.4
		c8.2,7.1,25.3,15,48.5,15c23.3,0,40.3-7.9,48.5-15c3.3-2.9,4.2-5,3.1-7.4c-1-2.1-2-4.4-2.8-6.9c29.4-4.1,43.1-16.2,48.3-24.1
		C237.1,180.1,239,176.7,235.4,172.9 M138.2,218.4c-12.4,0-22.2-3.2-28.5-5.9c1.3-2.3,2.3-4.7,3-7.2
		C120.8,210.3,129.4,214.6,138.2,218.4c8.9-3.8,17.6-8.1,25.7-13.2c0.8,2.5,1.8,4.9,3.1,7.2C160.7,215.1,150.6,218.4,138.2,218.4"/>
	<path class="st0" d="M95.4,196.3c-2,0-2.6,0.6-2.6,1.8c0,4.9,9.5,11.2,15.3,13.7c1.3-2.4,2.4-4.8,3.2-7.4c-3.4-2.2-6.8-4.6-10-7.1
		C99.2,196.8,97,196.3,95.4,196.3"/>
	<path class="st0" d="M55.1,165.3c-0.7,1.2-2.2,3.5-2.6,4.2c1.1,1.5,3.2,3.6,5.2,5.4l4.6-5.5C60,169.3,57,167.9,55.1,165.3"/>
	<path class="st0" d="M55.2,162.6c1.9,3.2,4.9,5.6,7.7,5c1-0.2,1-0.8,1.1-1c0.1-1.4-0.4-2.8-1.9-4.4c-2.4-2.7-5.8-4.3-9-4.3
		c-3.3,0-4.3,1.9-4.3,3.7c0,1.2,0.6,3.6,2.8,6.7C52.4,167,55.2,162.6,55.2,162.6"/>
	<path class="st0" d="M47.6,164c-1.7,5.1-3.6,8.2-5.1,9.7c-2.2,2.4-2.3,4.9,0.2,8.4c5.2,7,18,19.1,47,23.1c0.6-2.3,1.1-4.5,1.3-7.2
		c0-2.2,1.7-3.1,4-3.1c1.1,0,2.4,0.2,3.9,0.5c-1.9-1.6-3.8-3.2-5.6-4.9C65.6,186.8,51.5,173.8,47.6,164"/>
	<path class="st0" d="M168.6,211.6c5.8-2.6,14.9-8.6,14.9-13.5c0-1.1-0.6-1.8-2.6-1.8c-1.6,0-3.6,0.4-5.7,0.9
		c-3.2,2.5-6.6,4.9-10,7.1C166.1,206.9,167.3,209.3,168.6,211.6"/>
	<path class="st0" d="M214.1,169.4l4.6,5.5c2-1.7,4.1-3.9,5.2-5.4c-0.4-0.7-1.9-3.1-2.6-4.2C219.4,167.9,216.4,169.3,214.1,169.4"/>
	<path class="st0" d="M212.3,166.9c0,0.2,0.1,0.8,1.1,1c2.8,0.6,6-2,7.9-5.3c0,0,2.7,4.4,3.6,5.7c2.2-3.1,2.8-5.7,2.8-6.9
		c0-1.8-0.8-3.4-4.1-3.4c-3.2,0-6.7,1.6-9.1,4.2C212.9,163.9,212.2,165.6,212.3,166.9"/>
	<path class="st0" d="M234.1,174.1c-1.4-1.5-3.5-5-5.3-10.1c-3.9,9.7-17.9,22.8-45.6,26.4c-1.8,1.7-3.7,3.3-5.6,4.9
		c1.4-0.3,2.7-0.5,3.8-0.5c2.3,0,3.9,0.9,3.9,3.1c0.2,2.8,0.7,5.2,1.3,7.5c29.1-4,42.3-16.2,46.9-23.1
		C236,178.9,236.3,176.5,234.1,174.1"/>
	<path class="st0" d="M184.3,201.4c-4.7,7.9-24.2,18.7-46.1,18.7c-21.9,0-41.5-10.8-46.1-18.7c-0.8,5.2-2.2,9.4-3.9,13.2
		c-0.5,1.2-0.8,2.7,2.8,5.8c8,7,24.4,14.2,47.3,14.2c22.9,0,39.3-7.2,47.3-14.2c3.6-3.1,3.3-4.6,2.8-5.8
		C186.6,210.9,185.2,206.6,184.3,201.4"/>
	<path class="st3" d="M138.2,213.4C98.7,196.9,65,168.7,65,111.3V51.5c15.1-4,47.8-9.5,73.2-9.5c25.4,0,58.2,5.6,73.2,9.5v59.8
		C211.5,168.7,177.8,196.9,138.2,213.4"/>
	<path class="st1" d="M94.2,219c-2.1-1.7-2.7-4.9-2.3-7.1c0.5-2.4,2.3-3.7,4.2-2.2c0.8,0.7,1.2,1.3,1.6,2.3l0.4-0.7l0.3,0.3
		l-0.9,3.7L97,215c0.2-2.1,0-3.6-1.1-4.5c-1.1-0.9-2,0.2-2.5,2.7c-0.4,2.3,0,4.4,1.1,5.2c1.2,0.9,2,0.7,2.5-1.1l0.5,0.4
		C97,219.8,95.6,220.1,94.2,219"/>
	<path class="st1" d="M101.9,223.7c-2.6-1.2-3.3-4.2-2.9-6.2c0.4-2.2,2.3-4.1,4.8-2.9c3,1.4,3.4,4.5,3.1,6.4
		C106.3,223.3,104.5,224.9,101.9,223.7 M103.7,215.3c-1.1-0.5-2.3,0.1-2.9,3.1c-0.6,3.1,0.4,4.3,1.3,4.7c1.4,0.6,2.3-0.6,2.7-2.8
		C105.4,217.5,104.8,215.8,103.7,215.3"/>
	<path class="st1" d="M116.3,225c-0.3-0.1-0.6-0.1-0.8,0.5l-0.7,3.2l-0.5-0.1l-0.4-1.2c-0.5,0.7-1.4,1-2.6,0.5
		c-2.4-0.8-3.5-3.4-3-5.9c0.5-2.4,2.6-4.2,5.1-3.4c1.1,0.4,1.7,1,2.1,1.7l0.6-0.8l0.4,0.1l-0.9,3.7l-0.5-0.1
		c0.2-1.8-0.1-3.3-1.6-3.9c-0.7-0.3-2.4-0.1-3.1,3.3c-0.5,2.6,0.3,4.1,1.5,4.6c1,0.4,1.4-0.1,1.7-0.6l0.3-1.4c0.1-0.6-0.1-0.9-0.4-1
		l-0.8-0.3l0.1-0.6l4.2,1.2l-0.1,0.6L116.3,225z"/>
	<path class="st1" d="M127,222.6c-0.4-0.1-0.6,0-0.7,0.7l-1.1,8l-1-0.2l-3.8-7.6l-0.9,5.3c-0.1,0.6,0.2,0.9,0.5,1l0.8,0.2l-0.1,0.6
		l-3.6-0.8l0.1-0.6l0.7,0.2c0.4,0.1,0.6,0,0.7-0.7l1.1-6.4c0.1-0.6-0.1-0.8-0.6-0.9l-0.7-0.2l0.1-0.6l2.8,0.6l3.5,7l0.6-5
		c0.1-0.7-0.2-0.8-0.6-0.9l-0.8-0.1l0.1-0.6l3.7,0.6l-0.1,0.6L127,222.6z"/>
	<path class="st1" d="M132.1,232.1c-2.8-0.2-4-2.9-3.9-5.1c0.2-2.3,1.9-4.9,4.6-4.7c3.3,0.2,4.2,3.2,4,5.2
		C136.7,230,135,232.3,132.1,232.1 M132.9,223c-1.2-0.1-2.4,1-2.6,4.1c-0.3,3.3,0.9,4.1,2,4.2c1.5,0.1,2.3-1.4,2.5-3.8
		C135,224.6,134.2,223.1,132.9,223"/>
	<path class="st1" d="M142.5,232.2c-1.4,0.1-2.1-0.4-2.5-1.1l-0.5,1l-0.4,0l0-4l0.5,0c0.2,1.9,0.9,3.5,2.8,3.4
		c0.8,0,1.5-0.5,1.5-1.4c0-2.8-5-0.8-4.9-5c0-0.9,0.8-2.6,2.9-2.7c1.2,0,1.8,0.4,2.3,0.9l0.4-1l0.4,0l0,3.8l-0.6,0
		c-0.1-2-0.8-3.1-2.4-3c-1.1,0-1.5,0.9-1.5,1.5c0,2.3,5.1,0.9,5,4.6C145.5,230.7,144.4,232.1,142.5,232.2"/>
	<path class="st1" d="M152.2,231.2c-2.8,0.4-4.4-1.7-4.6-4c-0.2-2.5,1.4-5.4,3.9-5.7c1.1-0.1,1.8,0,2.5,0.5l0.3-1l0.4-0.1l0.3,4.1
		l-0.6,0.1c-0.3-2-1.2-3.1-2.7-2.9c-1.4,0.2-2.2,2.1-2,4.6c0.2,2.4,1.1,3.8,2.6,3.5c1.5-0.3,2.4-1.2,2.5-3.3l0.7-0.1
		C155.5,229.4,154.3,230.9,152.2,231.2"/>
	<path class="st1" d="M160.5,220.5c-0.3,0.1-0.5,0.3-0.5,0.8l0.2,2.8l0.2-0.1c1.4-0.4,1.5-0.5,1.6-2.7l0.5-0.1l0.3,5.1l-0.5,0.1
		c-0.3-2.1-0.4-2.1-1.9-1.7l-0.2,0.1l0.2,3.2c0,0.5,0.3,0.5,0.5,0.5c0.6-0.1,1-0.2,1.8-0.5c1.4-0.4,1.6-1,1.7-3.6l0.5-0.2l0.4,3.6
		c-3,1-5.3,1.6-8.3,2.4l0-0.6l0.8-0.2c0.3-0.1,0.6-0.3,0.6-1l-0.4-6.6c0-0.7-0.3-0.7-0.7-0.6l-0.8,0.2l0-0.6
		c2.9-0.8,5.7-1.6,7.7-2.2l0.4,3.5l-0.5,0.2c-0.4-2.4-1.1-2.6-2.2-2.3C161.3,220.2,160.8,220.4,160.5,220.5"/>
	<path class="st1" d="M167.4,227.1l-0.1-0.6l0.8-0.3c0.3-0.1,0.5-0.4,0.4-1.1l-0.8-6.3c-0.1-0.6-0.4-0.6-0.7-0.5l-0.8,0.3l-0.1-0.6
		l5.4-2.4c1.4-0.6,2.6-0.1,2.8,1.2c0.1,0.9-0.4,2.2-1.5,2.9c1,0.2,1.3,0.7,1.6,2.6c0.1,0.6,0.4,0.6,0.6,0.5c0.2-0.1,0.4-0.3,0.3-0.7
		l-0.3-1.8l0.6-0.3l0.4,1.9c0.1,0.7-0.3,1.5-1.5,2.1c-0.9,0.4-1.8,0.3-2-0.9c-0.3-1.9-0.7-2.5-1.7-2.1l-0.8,0.4l0.4,3.2
		c0.1,0.5,0.3,0.5,0.5,0.4l1.1-0.4l0.1,0.6C170.6,225.8,169,226.5,167.4,227.1 M170.5,216.8l-0.7,0.3c-0.3,0.1-0.4,0.3-0.3,0.6
		l0.4,3l0.9-0.4c1.4-0.6,1.7-1.9,1.7-2.6C172.3,216.2,171.3,216.5,170.5,216.8"/>
	<path class="st1" d="M182.3,208.7l0.9,3.1l-0.4,0.3c-0.6-2.2-1.2-2-2.1-1.3c-0.5,0.4-0.8,0.6-1.2,0.9c-0.3,0.2-0.4,0.4-0.3,0.9
		l0.6,2.6l0.3-0.2c1-0.8,1.1-1,0.8-3.1l0.4-0.3l1.1,4.7l-0.4,0.3c-0.5-1.9-0.6-1.9-1.8-1l-0.3,0.2l0.6,3c0.1,0.5,0.3,0.4,0.5,0.3
		c0.4-0.2,1.3-0.9,1.6-1.2c0.9-0.7,1.1-1.5,0.8-3.9l0.4-0.3l0.9,3.3c-1.8,1.7-4.6,3.7-6.9,5.2l-0.1-0.6l0.7-0.5
		c0.4-0.3,0.5-0.5,0.4-1.2l-1.2-6.1c-0.1-0.6-0.4-0.7-0.7-0.5l-0.7,0.5l-0.1-0.5C177.7,212.3,180.4,210.3,182.3,208.7"/>
	<path class="st1" d="M48.3,184.1c-0.6-0.8-0.9-1.9-0.5-2.9c0.8-1.6,0.8-2.5,0.2-3.5l-0.5-0.7l-1.4,2.5c-0.2,0.4-0.1,0.7,0.1,0.9
		l0.7,0.9l-0.2,0.5l-3.1-3.9l0.2-0.5l0.5,0.6c0.2,0.3,0.4,0.4,0.7-0.2l2.8-5.2c0.3-0.5,0.1-0.8-0.1-1.1l-0.5-0.6l0.2-0.5l3.5,4.4
		c0.9,1.2,1.2,2.9,0.7,4c-0.4,0.8-1.2,0.8-2,0.3c0.3,1.3,0.2,2-0.5,3.6c-0.2,0.5-0.2,0.7,0,0.9c0.1,0.2,0.3,0.2,0.5-0.1l0.7-1.6
		l0.5,0.6l-0.8,1.7C49.7,184.9,49.1,185.1,48.3,184.1 M49.9,174.4l-0.4-0.5c-0.2-0.2-0.3-0.2-0.4,0.1l-1.3,2.5l0.6,0.8
		c0.9,1.2,1.6,0.7,1.9,0.1C51,176.1,50.4,175.1,49.9,174.4"/>
	<path class="st1" d="M49.9,185.7l0.3-0.5l0.6,0.5c0.3,0.2,0.5,0.3,0.8-0.3l3-5.6c0.3-0.6,0.1-0.8-0.1-1l-0.6-0.5l0.3-0.5l5.9,4.9
		l-1.6,3l-0.4-0.3c0.9-2.2,0.6-3.1-0.2-3.8l-1-0.9c-0.2-0.2-0.4-0.2-0.7,0.2l-1.3,2.5l0.2,0.2c1,0.9,1.2,0.9,2.3-0.8l0.4,0.3
		l-2.3,4.4l-0.4-0.3c0.8-2,0.8-2.1-0.3-3l-0.2-0.2l-1.4,2.7c-0.2,0.5-0.1,0.7,0.1,0.8l1.4,1.1c0.8,0.7,1.5,0.6,2.8-1.3l0.4,0.3
		l-1.6,3.1L49.9,185.7z"/>
	<path class="st1" d="M63.9,195.4c-0.9-0.5-1.4-1.4-0.9-2.5c0.8-1.8,0.8-2.6-0.1-3.2l-0.7-0.4l-1.4,2.9c-0.2,0.5-0.1,0.6,0.2,0.8
		l1,0.5l-0.3,0.5l-4.4-2.4l0.2-0.5l0.7,0.4c0.3,0.2,0.6,0.2,0.9-0.4l2.7-5.8c0.3-0.6,0.1-0.8-0.2-1l-0.7-0.4l0.2-0.5l5,2.7
		c1.3,0.7,1.9,2.2,1.3,3.4c-0.4,0.9-1.4,1.2-2.5,1c0.6,1,0.5,1.7-0.3,3.5c-0.2,0.5-0.1,0.7,0.1,0.8c0.2,0.1,0.4,0.1,0.6-0.3l0.8-1.7
		l0.7,0.4L66,195C65.8,195.7,65.1,196,63.9,195.4 M64.9,186.1l-0.6-0.3c-0.3-0.1-0.4-0.1-0.5,0.2l-1.3,2.8l0.8,0.5
		c1.3,0.7,2.2,0,2.5-0.6C66.4,187.2,65.6,186.5,64.9,186.1"/>
	<path class="st1" d="M76.7,191c-0.4-0.1-0.7,0-1,0.5l-5.2,6.7l-0.8-0.3l0.2-8.6c0-0.7-0.1-0.9-0.4-1l-0.6-0.2l0.2-0.6l4.4,1.6
		l-0.2,0.6l-0.7-0.2c-0.3-0.1-0.8-0.1-0.7,0.6l-0.2,5.7l3.4-4.5c0.3-0.4,0.2-0.8-0.2-0.9l-0.5-0.2l0.2-0.6l2.9,1.1l-0.2,0.6
		L76.7,191z"/>
	<path class="st1" d="M81.8,201.4l0.2-0.6l0.7,0.1c0.5,0.1,0.7,0,0.8-0.6l1.6-5.4l-4.7,6.1l-0.8-0.2l-0.2-7.3l-1.9,5.3
		c-0.2,0.6,0,0.8,0.4,0.9l0.7,0.2l-0.2,0.6l-3.5-0.9l0.2-0.6l0.8,0.2c0.3,0.1,0.6,0,0.8-0.6l2.2-6.3c0.2-0.6,0-0.8-0.4-0.9l-0.8-0.2
		l0.2-0.6l3.5,0.9l0,6.7l4.4-5.7l3.4,0.6l-0.2,0.6l-0.8-0.1c-0.3-0.1-0.6,0-0.8,0.6l-1.9,6.3c-0.2,0.6,0,0.8,0.4,0.9l0.8,0.2
		l-0.2,0.6L81.8,201.4z"/>
	<path class="st1" d="M194.4,201.6c-2.7,0.6-4.6-1.5-5.2-3.7c-0.6-2.5,0.5-5.3,2.8-5.8c1-0.2,1.7,0,2.5,0.4l0.1-1l0.4-0.1l1,4
		l-0.6,0.1c-0.7-1.9-1.8-3-3.2-2.7c-1.3,0.3-1.7,2.1-1.1,4.6c0.6,2.4,1.9,3.7,3.2,3.4c1.4-0.3,2.1-1.3,1.8-3.3l0.6-0.1
		C197.4,199.8,196.4,201.2,194.4,201.6"/>
	<path class="st1" d="M201.7,199.4l-0.2-0.6l0.7-0.2c0.3-0.1,0.7-0.4,0.3-0.9l-0.9-1.3l-2.2,0.7l0,1.6c0,0.5,0.3,0.7,0.8,0.6
		l0.6-0.2l0.2,0.6l-3.2,1l-0.2-0.6l0.6-0.2c0.4-0.1,0.6-0.4,0.6-1l0.1-8.5l0.9-0.3l4.9,6.9c0.4,0.5,0.6,0.6,0.9,0.5l0.8-0.2l0.2,0.6
		L201.7,199.4z M199.5,193.3l0,3.2l1.8-0.6L199.5,193.3z"/>
	<path class="st1" d="M210.4,186.6c-0.4,0.2-0.5,0.5-0.5,1.1l0,8.8l-0.8,0.4l-5-6.6c-0.4-0.5-0.6-0.6-0.9-0.5l-0.6,0.3l-0.2-0.6
		l4.3-1.9l0.2,0.6l-0.6,0.3c-0.3,0.1-0.7,0.5-0.3,1l3.2,4.3l-0.1-5.7c0-0.6-0.3-0.7-0.7-0.5l-0.5,0.2l-0.2-0.6l2.9-1.3l0.2,0.6
		L210.4,186.6z"/>
	<path class="st1" d="M217,192.8c-1.1,0.7-1.8,0.5-2.5,0.1l-0.1,1.2l-0.3,0.2l-1.1-3.8l0.4-0.3c0.7,1.7,1.8,2.9,3.4,1.9
		c0.6-0.4,1.1-1.2,0.8-2c-0.8-2.6-4.4,1.6-5.6-2.5c-0.2-0.8-0.1-2.8,1.6-3.9c1-0.6,1.6-0.5,2.2-0.2l0.1-1.2l0.3-0.2l1.1,3.6
		l-0.5,0.3c-0.7-1.8-1.6-2.5-2.9-1.7c-0.9,0.6-1,1.5-0.9,2.1c0.6,2.2,4.5-1.5,5.5,2C219,190,218.5,191.9,217,192.8"/>
	<path class="st1" d="M222.9,188.3l-0.2-0.6l0.6-0.5c0.3-0.2,0.5-0.6,0.2-1.1l-0.9-1.1l-1.8,1.5l0.1,1.7c0,0.6,0.3,0.7,0.7,0.4
		l0.5-0.4l0.2,0.6l-2.6,2.1l-0.2-0.6l0.5-0.4c0.3-0.3,0.4-0.6,0.4-1.2l-0.6-9l0.7-0.6l4.6,5.7c0.4,0.5,0.5,0.5,0.8,0.3l0.6-0.5
		l0.2,0.6L222.9,188.3z M220.5,182.5l0.2,3.3l1.5-1.2L220.5,182.5z"/>
	<path class="st1" d="M229.3,182.3c-0.8,1-1.4,1.1-1.9,0.8l0.1,1.3l-0.2,0.3l-1.4-3.7l0.3-0.4c0.8,1.5,1.8,2.5,2.9,1
		c0.4-0.6,0.7-1.6,0.4-2.3c-1-2.5-3.3,2.9-4.7-0.9c-0.3-0.8-0.5-2.9,0.7-4.6c0.7-0.9,1.2-1,1.7-0.8l-0.1-1.3l0.2-0.3l1.4,3.5
		l-0.3,0.4c-0.8-1.7-1.6-2.2-2.5-1c-0.7,0.9-0.6,1.9-0.4,2.5c0.8,2.1,3.3-2.9,4.6,0.5C230.5,178.8,230.4,180.9,229.3,182.3"/>
	<path class="st1" d="M85.8,76.6l1.1-1.5l100.6,63.7c1.1,0.7,2.4,1.5,3.7,2.4l0.5-0.7c0.5-0.5,0.9-0.9,1.1-1.1
		c0.5,0.2,2.3,1,3.3,1.7c2.3,1.5,4.5,4.6,4.1,6.8c-2,1.1-5.9,0.5-8.2-1c-1-0.6-2.5-1.9-2.9-2.2c0.1-0.3,0.7-1.4,1.1-1.9l-89.8-56.9
		c-2.6,0.1-5.4,0.4-8.1-1.3c-1-0.7-4.6-2.9-6.7-4.3c0.5-0.3,1.9-1.1,3-1.8L85.8,76.6z"/>
	<path class="st0" d="M86.2,76.1l2.8,1.8c-1.1,0.8-2.5,1.6-2.9,1.9c2.1,1.4,5.5,3.6,6.5,4.2c2.7,1.7,5.5,1.4,8.1,1.3l86,54.4
		c2.9,1.8,7.2,4.3,10,5.7l-0.1,0.1c-2.4-0.4-4.7-1.6-6.6-2.8c-0.4,0.6-0.6,1.1-0.8,1.4c0.4,0.4,1.9,1.6,2.9,2.2
		c2.3,1.5,6.1,2,8.1,0.9c0.4-2.1-1.6-5.2-3.9-6.7c-1-0.6-2.8-1.5-3.3-1.7c-0.3,0.2-1.1,1.2-1.5,1.7l-89.8-56.9
		c-0.9-2.3-1.6-4.8-4.3-6.5c-1-0.7-4.4-2.8-6.6-4.1c-0.1,0.5-0.4,2-0.7,3.2l-2.8-1.8L86.2,76.1z"/>
	<path class="st1" d="M91.7,77.7c0.1-0.9,0.2-2.4,0.2-2.8c0-0.2,0.3,0,0.4,0.1c0.1,0.6,0.2,2.1,0.3,3.2L91.7,77.7z"/>
	<path class="st1" d="M94.3,79.4c0-0.9-0.1-2.3-0.3-3.1c0-0.3,0.3,0,0.4,0.1c0.4,0.9,0.6,3,0.7,3.5L94.3,79.4z"/>
	<path class="st1" d="M99.5,82.7c-0.2-0.9-0.4-2.1-0.6-2.6c-0.2-0.6,0.2-0.3,0.3,0c0.5,0.8,0.9,2.2,1,3.1L99.5,82.7z"/>
	<path class="st1" d="M96.9,81c0-0.9-0.3-2.5-0.5-3.3c-0.1-0.3,0.4,0,0.4,0.1c0.4,0.9,0.8,3.1,0.9,3.7L96.9,81z"/>
	<path class="st1" d="M90.9,78.8c-0.9,0.5-2.3,1.1-2.7,1.2c-0.2,0.1,0.1,0.3,0.2,0.3c0.7-0.1,2.2-0.7,3.3-1L90.9,78.8z"/>
	<path class="st1" d="M93.5,80.4c-0.9,0.3-2.3,0.7-3.2,0.9c-0.3,0.1,0.1,0.3,0.3,0.3c1,0,3.1-0.6,3.8-0.8L93.5,80.4z"/>
	<path class="st1" d="M98.7,83.7c-1,0.2-2.2,0.4-2.8,0.5c-0.7,0-0.2,0.3,0.1,0.3c1,0.1,2.5-0.1,3.4-0.3L98.7,83.7z"/>
	<path class="st1" d="M96.1,82.1c-0.9,0.3-2.6,0.6-3.4,0.8c-0.3,0.1,0.1,0.3,0.3,0.3c1,0,3.4-0.4,4-0.6L96.1,82.1z"/>
	<path class="st1" d="M80,85.5l1.1-1.5l100.6,63.7c1.1,0.7,2.4,1.5,3.7,2.4l0.5-0.7c0.5-0.5,0.9-0.9,1.1-1.1c0.5,0.2,2.3,1,3.3,1.7
		c2.3,1.5,4.5,4.6,4.1,6.8c-2,1.1-5.9,0.5-8.2-1c-1-0.6-2.5-1.9-2.9-2.2c0.1-0.3,0.7-1.4,1.1-1.9L94.5,94.7
		c-2.6,0.1-5.4,0.4-8.1-1.3c-1-0.6-4.6-2.9-6.7-4.3c0.5-0.3,1.9-1.1,3-1.8L80,85.5z"/>
	<path class="st0" d="M80.4,85l2.8,1.8c-1.1,0.8-2.5,1.6-2.9,1.9c2.1,1.4,5.5,3.6,6.5,4.2c2.7,1.7,5.5,1.4,8.1,1.3l86,54.4
		c2.9,1.8,7.2,4.3,10,5.7l-0.1,0.1c-2.4-0.4-4.7-1.6-6.6-2.8c-0.4,0.6-0.6,1.1-0.8,1.4c0.4,0.4,1.9,1.6,2.9,2.2
		c2.3,1.5,6.1,2,8.1,0.9c0.4-2.1-1.6-5.2-3.9-6.7c-1-0.6-2.8-1.5-3.3-1.7c-0.3,0.2-1.1,1.2-1.5,1.7L96,92.7
		c-0.9-2.3-1.6-4.8-4.3-6.5c-1-0.7-4.4-2.8-6.6-4.1c-0.1,0.5-0.4,2-0.7,3.2l-2.8-1.8L80.4,85z"/>
	<path class="st1" d="M85.9,86.6c0.1-0.9,0.2-2.4,0.2-2.8c0-0.2,0.3,0,0.4,0.1c0.1,0.6,0.2,2.1,0.3,3.2L85.9,86.6z"/>
	<path class="st1" d="M88.5,88.3c0-1-0.1-2.3-0.3-3.1c0-0.3,0.3,0,0.4,0.1c0.4,0.9,0.6,3,0.7,3.5L88.5,88.3z"/>
	<path class="st1" d="M93.7,91.6c-0.2-0.9-0.4-2.1-0.6-2.6c-0.2-0.6,0.2-0.3,0.3-0.1c0.5,0.8,0.9,2.2,1,3.1L93.7,91.6z"/>
	<path class="st1" d="M91.1,89.9c0-1-0.3-2.5-0.5-3.3c-0.1-0.3,0.4,0,0.4,0.1c0.4,0.9,0.8,3.1,0.9,3.7L91.1,89.9z"/>
	<path class="st1" d="M85.2,87.7c-0.9,0.5-2.3,1.1-2.7,1.2c-0.2,0.1,0.1,0.3,0.2,0.3c0.7-0.1,2.2-0.7,3.3-1L85.2,87.7z"/>
	<path class="st1" d="M87.7,89.3c-0.9,0.3-2.3,0.7-3.2,0.9c-0.3,0.1,0.1,0.3,0.3,0.3c1,0,3.1-0.6,3.8-0.8L87.7,89.3z"/>
	<path class="st1" d="M92.9,92.6c-1,0.2-2.2,0.4-2.8,0.5c-0.7,0-0.2,0.3,0.1,0.3c1,0.1,2.5-0.1,3.4-0.3L92.9,92.6z"/>
	<path class="st1" d="M90.4,91c-0.9,0.3-2.6,0.6-3.4,0.8c-0.3,0.1,0.1,0.3,0.3,0.3c1,0,3.4-0.4,4-0.6L90.4,91z"/>
	<path class="st1" d="M74.2,94.5l1.1-1.5l100.6,63.7c1.1,0.7,2.4,1.5,3.7,2.4l0.5-0.7c0.5-0.5,0.9-0.9,1.1-1.1
		c0.5,0.2,2.3,1,3.3,1.7c2.3,1.5,4.5,4.6,4.1,6.8c-2,1.1-5.9,0.5-8.2-1c-1-0.6-2.5-1.9-2.9-2.2c0.1-0.3,0.7-1.4,1.1-1.9l-89.8-56.9
		c-2.6,0.1-5.4,0.4-8.1-1.3c-1-0.6-4.6-2.9-6.7-4.3c0.5-0.3,1.9-1.1,3-1.8L74.2,94.5z"/>
	<path class="st0" d="M74.6,94l2.8,1.8c-1.1,0.8-2.5,1.6-2.9,1.9c2.1,1.4,5.5,3.6,6.5,4.2c2.7,1.7,5.5,1.4,8.1,1.3l86,54.4
		c2.9,1.8,7.2,4.3,10,5.7l-0.1,0.1c-2.4-0.4-4.7-1.6-6.6-2.8c-0.4,0.6-0.6,1.1-0.8,1.4c0.4,0.4,1.9,1.6,2.9,2.2
		c2.3,1.5,6.1,2,8.1,0.9c0.4-2.1-1.6-5.2-3.9-6.7c-1-0.6-2.8-1.5-3.3-1.7c-0.3,0.2-1.1,1.2-1.5,1.7l-89.8-56.9
		c-0.9-2.3-1.6-4.8-4.3-6.5c-1-0.7-4.4-2.8-6.6-4.1c-0.1,0.5-0.4,2-0.7,3.2l-2.8-1.8L74.6,94z"/>
	<path class="st1" d="M80.2,95.6c0.1-0.9,0.2-2.4,0.2-2.8c0-0.2,0.3,0,0.4,0.1c0.1,0.6,0.2,2.1,0.3,3.2L80.2,95.6z"/>
	<path class="st1" d="M82.7,97.2c0-0.9-0.1-2.3-0.3-3.1c0-0.3,0.3,0,0.4,0.1c0.4,0.9,0.6,3,0.7,3.5L82.7,97.2z"/>
	<path class="st1" d="M87.9,100.5c-0.2-0.9-0.4-2.1-0.6-2.6c-0.2-0.6,0.2-0.3,0.3-0.1c0.5,0.8,0.9,2.2,1,3.1L87.9,100.5z"/>
	<path class="st1" d="M85.4,98.9c0-1-0.3-2.5-0.5-3.3c-0.1-0.3,0.4,0,0.4,0.1c0.4,0.9,0.8,3.1,0.9,3.7L85.4,98.9z"/>
	<path class="st1" d="M79.4,96.7c-0.9,0.5-2.3,1.1-2.7,1.2c-0.2,0.1,0.1,0.3,0.2,0.3c0.7-0.1,2.2-0.7,3.3-1L79.4,96.7z"/>
	<path class="st1" d="M82,98.3c-0.9,0.3-2.3,0.7-3.2,0.9c-0.3,0.1,0.1,0.3,0.3,0.3c1,0,3.1-0.6,3.7-0.8L82,98.3z"/>
	<path class="st1" d="M87.2,101.6c-1,0.2-2.2,0.4-2.8,0.5c-0.7,0-0.2,0.3,0.1,0.3c1,0.1,2.5-0.1,3.4-0.3L87.2,101.6z"/>
	<path class="st1" d="M84.6,100c-0.9,0.3-2.6,0.6-3.4,0.8c-0.3,0.1,0.1,0.3,0.3,0.3c1,0,3.4-0.4,4-0.6L84.6,100z"/>
	<path class="st1" d="M68.3,103.4l1.1-1.5L170,165.6c1.1,0.7,2.4,1.5,3.7,2.4l0.5-0.7c0.5-0.5,0.9-0.9,1.1-1.1
		c0.5,0.2,2.3,1,3.3,1.7c2.3,1.5,4.5,4.6,4.1,6.8c-2,1.1-5.9,0.5-8.2-1c-1-0.6-2.5-1.9-2.9-2.2c0.1-0.3,0.7-1.4,1.1-1.9l-89.8-56.9
		c-2.6,0.1-5.4,0.4-8.1-1.3c-1-0.6-4.6-2.9-6.7-4.3c0.5-0.3,1.9-1.1,3-1.8L68.3,103.4z"/>
	<path class="st0" d="M68.7,102.9l2.8,1.8c-1.1,0.8-2.5,1.6-2.9,1.9c2.1,1.4,5.5,3.6,6.5,4.2c2.7,1.7,5.5,1.4,8.1,1.3l86,54.4
		c2.9,1.8,7.2,4.3,10,5.7l-0.1,0.1c-2.4-0.4-4.7-1.6-6.6-2.8c-0.4,0.6-0.6,1.1-0.8,1.4c0.4,0.4,1.9,1.6,2.9,2.2
		c2.3,1.5,6.1,2,8.1,0.9c0.4-2.1-1.6-5.2-3.9-6.7c-1-0.6-2.8-1.5-3.3-1.7c-0.3,0.2-1.1,1.2-1.5,1.7l-89.8-56.9
		c-0.9-2.3-1.6-4.8-4.3-6.5c-1-0.7-4.4-2.8-6.6-4.1c-0.1,0.5-0.4,2-0.7,3.2l-2.8-1.8L68.7,102.9z"/>
	<path class="st1" d="M74.3,104.5c0.1-0.9,0.2-2.4,0.2-2.8c0-0.2,0.3,0,0.4,0.1c0.1,0.6,0.2,2.1,0.3,3.2L74.3,104.5z"/>
	<path class="st1" d="M76.8,106.1c0-1-0.1-2.3-0.3-3.1c0-0.3,0.3,0,0.4,0.1c0.4,0.9,0.6,3,0.7,3.5L76.8,106.1z"/>
	<path class="st1" d="M82,109.4c-0.2-0.9-0.4-2.1-0.6-2.6c-0.2-0.6,0.2-0.3,0.3,0c0.5,0.8,0.9,2.2,1,3.1L82,109.4z"/>
	<path class="st1" d="M79.5,107.8c0-1-0.3-2.5-0.5-3.3c-0.1-0.3,0.4,0,0.4,0.1c0.4,0.9,0.8,3.1,0.9,3.7L79.5,107.8z"/>
	<path class="st1" d="M73.5,105.6c-0.9,0.5-2.3,1.1-2.7,1.2c-0.2,0.1,0.1,0.3,0.2,0.3c0.7-0.1,2.2-0.7,3.3-1L73.5,105.6z"/>
	<path class="st1" d="M76.1,107.2c-0.9,0.3-2.3,0.7-3.2,0.9c-0.3,0.1,0.1,0.3,0.3,0.3c1,0,3.1-0.6,3.8-0.8L76.1,107.2z"/>
	<path class="st1" d="M81.3,110.5c-1,0.2-2.2,0.4-2.8,0.5c-0.7,0-0.2,0.3,0.1,0.3c1,0.1,2.5-0.1,3.4-0.3L81.3,110.5z"/>
	<path class="st1" d="M78.7,108.9c-0.9,0.3-2.6,0.6-3.4,0.8c-0.3,0.1,0.1,0.3,0.3,0.3c1,0,3.4-0.4,4-0.6L78.7,108.9z"/>
	<path class="st1" d="M190.7,76.6l-1.1-1.5L89,138.8c-1.1,0.7-2.4,1.5-3.7,2.4l-0.5-0.7c-0.5-0.5-0.9-0.9-1.1-1.1
		c-0.5,0.2-2.3,1-3.3,1.7c-2.3,1.5-4.5,4.6-4.1,6.8c2,1.1,5.9,0.5,8.2-1c1-0.6,2.5-1.9,2.9-2.2c-0.1-0.3-0.7-1.4-1.1-1.9l89.8-56.9
		c2.7,0.1,5.4,0.4,8.1-1.3c1-0.7,4.6-2.9,6.7-4.3c-0.5-0.3-1.9-1.1-3-1.8L190.7,76.6z"/>
	<path class="st0" d="M189.2,74.6l-2.8,1.8c-0.3-1.2-0.7-2.7-0.7-3.2c-2.2,1.3-5.6,3.4-6.6,4.1c-2.7,1.7-3.4,4.2-4.3,6.5l-89.8,56.9
		c-0.4-0.5-1.2-1.4-1.5-1.7c-0.5,0.2-2.3,1-3.3,1.7c-2.3,1.5-4.3,4.6-3.9,6.7c2,1.1,5.7,0.6,8.1-0.9c1-0.6,2.5-1.9,2.9-2.2
		c-0.1-0.3-0.4-0.8-0.8-1.4c-1.9,1.2-4.1,2.4-6.6,2.8l-0.1-0.1c2.8-1.4,7.1-3.8,10-5.7l86-54.4c2.7,0.1,5.4,0.4,8.1-1.3
		c1-0.6,4.4-2.8,6.5-4.2c-0.5-0.3-1.8-1.1-2.9-1.9l2.8-1.8L189.2,74.6z"/>
	<path class="st1" d="M184.8,77.7c-0.1-0.9-0.2-2.4-0.2-2.8c0-0.2-0.3,0-0.4,0.1c-0.1,0.6-0.2,2.1-0.3,3.2L184.8,77.7z"/>
	<path class="st1" d="M182.2,79.4c0-0.9,0.1-2.3,0.3-3.1c0-0.3-0.3,0-0.4,0.1c-0.4,0.9-0.6,3-0.7,3.5L182.2,79.4z"/>
	<path class="st1" d="M177,82.7c0.2-0.9,0.4-2.1,0.6-2.6c0.2-0.6-0.2-0.3-0.3,0c-0.5,0.8-0.9,2.2-1,3.1L177,82.7z"/>
	<path class="st1" d="M179.6,81c0-0.9,0.3-2.5,0.5-3.3c0.1-0.3-0.4,0-0.4,0.1c-0.4,0.9-0.8,3.1-0.9,3.7L179.6,81z"/>
	<path class="st1" d="M185.5,78.8c0.9,0.5,2.3,1.1,2.7,1.2c0.2,0.1-0.1,0.3-0.2,0.3c-0.7-0.1-2.1-0.7-3.3-1L185.5,78.8z"/>
	<path class="st1" d="M183,80.4c0.9,0.3,2.3,0.7,3.2,0.9c0.3,0.1-0.1,0.3-0.3,0.3c-1,0-3.1-0.6-3.8-0.8L183,80.4z"/>
	<path class="st1" d="M177.8,83.7c1,0.2,2.2,0.4,2.8,0.5c0.7,0,0.2,0.3-0.1,0.3c-1,0.1-2.5-0.1-3.4-0.3L177.8,83.7z"/>
	<path class="st1" d="M180.3,82.1c0.9,0.3,2.6,0.6,3.4,0.8c0.3,0.1-0.1,0.3-0.3,0.3c-1,0-3.4-0.4-4-0.6L180.3,82.1z"/>
	<path class="st1" d="M196.5,85.5l-1.1-1.5L94.8,147.7c-1.1,0.7-2.4,1.5-3.7,2.4l-0.5-0.7c-0.5-0.5-0.9-0.9-1.1-1.1
		c-0.5,0.2-2.3,1-3.3,1.7c-2.3,1.5-4.5,4.6-4.1,6.8c2,1.1,5.9,0.5,8.2-1c1-0.6,2.5-1.9,2.9-2.2c-0.1-0.3-0.7-1.4-1.1-1.9L182,94.7
		c2.6,0.1,5.4,0.4,8.1-1.3c1-0.6,4.6-2.9,6.7-4.3c-0.5-0.3-1.9-1.1-3-1.8L196.5,85.5z"/>
	<path class="st0" d="M195,83.5l-2.8,1.8c-0.3-1.2-0.7-2.7-0.7-3.2c-2.2,1.3-5.6,3.4-6.6,4.1c-2.7,1.7-3.4,4.2-4.3,6.5l-89.8,56.9
		c-0.4-0.5-1.2-1.4-1.5-1.7c-0.5,0.2-2.3,1-3.3,1.7c-2.3,1.5-4.3,4.6-3.9,6.7c2,1.1,5.7,0.6,8.1-0.9c1-0.6,2.5-1.9,2.9-2.2
		c-0.1-0.3-0.4-0.8-0.8-1.4c-1.9,1.2-4.1,2.4-6.6,2.8l-0.1-0.1c2.8-1.4,7.1-3.8,10-5.7l86-54.4c2.7,0.1,5.4,0.4,8.1-1.3
		c1-0.6,4.4-2.8,6.5-4.2c-0.5-0.3-1.8-1.1-2.9-1.9l2.8-1.8L195,83.5z"/>
	<path class="st1" d="M190.6,86.6c-0.1-0.9-0.2-2.4-0.2-2.8c0-0.2-0.3,0-0.4,0.1c-0.1,0.6-0.2,2.1-0.3,3.2L190.6,86.6z"/>
	<path class="st1" d="M188,88.3c0-1,0.1-2.3,0.3-3.1c0-0.3-0.3,0-0.4,0.1c-0.4,0.9-0.6,3-0.7,3.5L188,88.3z"/>
	<path class="st1" d="M182.8,91.6c0.2-0.9,0.4-2.1,0.6-2.6c0.2-0.6-0.2-0.3-0.3-0.1c-0.5,0.8-0.9,2.2-1,3.1L182.8,91.6z"/>
	<path class="st1" d="M185.4,89.9c0-1,0.3-2.5,0.5-3.3c0.1-0.3-0.4,0-0.4,0.1c-0.4,0.9-0.8,3.1-0.9,3.7L185.4,89.9z"/>
	<path class="st1" d="M191.3,87.7c0.9,0.5,2.3,1.1,2.7,1.2c0.2,0.1-0.1,0.3-0.2,0.3c-0.7-0.1-2.1-0.7-3.3-1L191.3,87.7z"/>
	<path class="st1" d="M188.8,89.3c0.9,0.3,2.3,0.7,3.2,0.9c0.3,0.1-0.1,0.3-0.3,0.3c-1,0-3.1-0.6-3.8-0.8L188.8,89.3z"/>
	<path class="st1" d="M183.6,92.6c1,0.2,2.2,0.4,2.8,0.5c0.7,0,0.2,0.3-0.1,0.3c-1,0.1-2.5-0.1-3.4-0.3L183.6,92.6z"/>
	<path class="st1" d="M186.1,91c0.9,0.3,2.6,0.6,3.4,0.8c0.3,0.1-0.1,0.3-0.3,0.3c-1,0-3.4-0.4-4-0.6L186.1,91z"/>
	<path class="st1" d="M202.3,94.5l-1.1-1.5l-100.6,63.7c-1.1,0.7-2.4,1.5-3.7,2.4l-0.5-0.7c-0.5-0.5-0.9-0.9-1.1-1.1
		c-0.5,0.2-2.3,1-3.3,1.7c-2.3,1.5-4.5,4.6-4.1,6.8c2,1.1,5.9,0.5,8.2-1c1-0.6,2.5-1.9,2.9-2.2c-0.1-0.3-0.7-1.4-1.1-1.9l89.8-56.9
		c2.7,0.1,5.4,0.4,8.1-1.3c1-0.6,4.6-2.9,6.7-4.3c-0.5-0.3-1.9-1.1-3-1.8L202.3,94.5z"/>
	<path class="st0" d="M200.8,92.5l-2.8,1.8c-0.3-1.2-0.7-2.7-0.7-3.2c-2.2,1.3-5.6,3.4-6.6,4.1c-2.7,1.7-3.4,4.2-4.3,6.5l-89.8,56.9
		c-0.4-0.5-1.2-1.4-1.5-1.7c-0.5,0.2-2.3,1-3.3,1.7c-2.3,1.5-4.3,4.6-3.9,6.7c2,1.1,5.7,0.6,8.1-0.9c1-0.6,2.5-1.9,2.9-2.2
		c-0.1-0.3-0.4-0.8-0.8-1.4c-1.9,1.2-4.1,2.4-6.6,2.8l-0.1-0.1c2.8-1.4,7.1-3.9,10-5.7l86-54.4c2.7,0.1,5.4,0.4,8.1-1.3
		c1-0.6,4.4-2.8,6.5-4.2c-0.5-0.3-1.8-1.1-2.9-1.9l2.8-1.8L200.8,92.5z"/>
	<path class="st1" d="M196.3,95.6c-0.1-0.9-0.2-2.4-0.2-2.8c0-0.2-0.3,0-0.4,0.1c-0.1,0.6-0.2,2.1-0.3,3.2L196.3,95.6z"/>
	<path class="st1" d="M193.8,97.2c0-0.9,0.1-2.3,0.3-3.1c0-0.3-0.3,0-0.4,0.1c-0.4,0.9-0.6,3-0.7,3.5L193.8,97.2z"/>
	<path class="st1" d="M188.6,100.5c0.2-0.9,0.4-2.1,0.6-2.6c0.2-0.6-0.2-0.3-0.3-0.1c-0.5,0.8-0.9,2.2-1,3.1L188.6,100.5z"/>
	<path class="st1" d="M191.1,98.9c0-1,0.3-2.5,0.5-3.3c0.1-0.3-0.4,0-0.4,0.1c-0.4,0.9-0.8,3.1-0.9,3.7L191.1,98.9z"/>
	<path class="st1" d="M197.1,96.7c0.9,0.5,2.3,1.1,2.7,1.2c0.2,0.1-0.1,0.3-0.2,0.3c-0.7-0.1-2.1-0.7-3.3-1L197.1,96.7z"/>
	<path class="st1" d="M194.5,98.3c0.9,0.3,2.3,0.7,3.2,0.9c0.3,0.1-0.1,0.3-0.3,0.3c-1,0-3.1-0.6-3.8-0.8L194.5,98.3z"/>
	<path class="st1" d="M189.3,101.6c1,0.2,2.2,0.4,2.8,0.5c0.7,0,0.2,0.3-0.1,0.3c-1,0.1-2.5-0.1-3.5-0.3L189.3,101.6z"/>
	<path class="st1" d="M191.9,100c0.9,0.3,2.6,0.6,3.4,0.8c0.3,0.1-0.1,0.3-0.3,0.3c-1,0-3.4-0.4-4-0.6L191.9,100z"/>
	<path class="st1" d="M208.2,103.4l-1.1-1.5l-100.6,63.7c-1.1,0.7-2.4,1.5-3.7,2.4l-0.5-0.7c-0.5-0.5-0.9-0.9-1.1-1.1
		c-0.5,0.2-2.3,1-3.3,1.7c-2.3,1.5-4.5,4.6-4.1,6.8c2,1.1,5.9,0.5,8.2-1c1-0.6,2.5-1.9,2.9-2.2c-0.1-0.3-0.7-1.4-1.1-1.9l89.8-56.9
		c2.6,0.1,5.4,0.4,8.1-1.3c1-0.6,4.6-2.9,6.7-4.3c-0.5-0.3-1.9-1.1-3-1.8L208.2,103.4z"/>
	<path class="st0" d="M206.7,101.4l-2.8,1.8c-0.3-1.2-0.7-2.7-0.7-3.2c-2.2,1.3-5.6,3.4-6.6,4.1c-2.7,1.7-3.4,4.2-4.3,6.5
		l-89.8,56.9c-0.4-0.5-1.2-1.4-1.5-1.7c-0.5,0.2-2.3,1-3.3,1.7c-2.3,1.5-4.3,4.6-3.9,6.7c2,1.1,5.7,0.6,8.1-0.9
		c1-0.6,2.5-1.9,2.9-2.2c-0.1-0.3-0.4-0.8-0.8-1.4c-1.9,1.2-4.1,2.4-6.6,2.8l-0.1-0.1c2.8-1.4,7.1-3.9,10-5.7l86-54.4
		c2.7,0.1,5.4,0.4,8.1-1.3c1-0.6,4.4-2.8,6.5-4.2c-0.5-0.3-1.8-1.1-2.9-1.9l2.8-1.8L206.7,101.4z"/>
	<path class="st1" d="M202.2,104.5c-0.1-0.9-0.2-2.4-0.2-2.8c0-0.2-0.3,0-0.4,0.1c-0.1,0.6-0.2,2.1-0.3,3.2L202.2,104.5z"/>
	<path class="st1" d="M199.7,106.1c0-1,0.1-2.3,0.3-3.1c0-0.3-0.3,0-0.4,0.1c-0.4,0.9-0.6,3-0.7,3.5L199.7,106.1z"/>
	<path class="st1" d="M194.5,109.4c0.2-0.9,0.4-2.1,0.6-2.6c0.2-0.6-0.2-0.3-0.3,0c-0.5,0.8-0.9,2.2-1,3.1L194.5,109.4z"/>
	<path class="st1" d="M197,107.8c0-1,0.3-2.5,0.5-3.3c0.1-0.3-0.4,0-0.4,0.1c-0.4,0.9-0.8,3.1-0.9,3.7L197,107.8z"/>
	<path class="st1" d="M203,105.6c0.9,0.5,2.3,1.1,2.7,1.2c0.2,0.1-0.1,0.3-0.2,0.3c-0.7-0.1-2.2-0.7-3.3-1L203,105.6z"/>
	<path class="st1" d="M200.4,107.2c0.9,0.3,2.3,0.7,3.2,0.9c0.3,0.1-0.1,0.3-0.3,0.3c-1,0-3.1-0.6-3.7-0.8L200.4,107.2z"/>
	<path class="st1" d="M195.2,110.5c1,0.2,2.2,0.4,2.8,0.5c0.7,0,0.2,0.3-0.1,0.3c-1,0.1-2.5-0.1-3.4-0.3L195.2,110.5z"/>
	<path class="st1" d="M197.8,108.9c0.9,0.3,2.6,0.6,3.4,0.8c0.3,0.1-0.1,0.3-0.3,0.3c-1,0-3.4-0.4-4-0.6L197.8,108.9z"/>
	<path class="st4" d="M141,161.7c0-0.7,0-3-0.1-3.3c0-0.3-0.2-0.4-0.4-0.3c-0.2,0.1-0.5,0.4-0.8,0.6c0-0.4,0.1-1.3,0.1-1.6
		c0-0.5-0.1-0.5-0.4-0.2c-0.2,0.1-0.3,0-0.4-0.2c-0.1-0.3-0.7-1.8-0.8-2.1c-0.1-0.3-0.3-0.3-0.4,0.1c-0.2,0.4-0.6,1.5-0.7,1.9
		c-0.1,0.4-0.2,0.4-0.5,0.2c-0.4-0.3-0.5-0.2-0.5,0.1c0.1,0.5,0.3,1.6,0.4,2.3c-0.2-0.3-0.6-0.7-0.8-1c-0.2-0.3-0.4-0.1-0.4,0.2
		c0,0.4-0.1,1.8-0.1,2.8l3.1,2.1L141,161.7z"/>
	<path class="st4" d="M117.4,177.1c-0.9-0.3-2-0.7-2.4-0.8c-0.3-0.1-0.4-0.4-0.1-0.5c0.3-0.1,0.8-0.3,1.2-0.5
		c-0.6-0.1-1.7-0.3-2.2-0.4c-0.5-0.1-0.4-0.3-0.1-0.5c0.2-0.1,0.2-0.1,0-0.3c-0.3-0.2-1.2-1-1.5-1.3c-0.3-0.3-0.3-0.4,0.1-0.5
		c0.4,0,1.8,0,2.2-0.1c0.3,0,0.4,0,0.2-0.3c-0.2-0.4-0.2-0.5,0.1-0.4c0.3,0.1,1.5,0.5,1.9,0.6c-0.1-0.4-0.2-0.7-0.3-1
		c-0.1-0.2,0-0.4,0.4-0.3c0.3,0.1,2.4,0.7,3.1,0.9l0.8,3.3L117.4,177.1z"/>
	<path class="st4" d="M123.1,196.4c-0.4,0.6-1.4,1.9-1.5,2.2c-0.2,0.3,0,0.4,0.2,0.5c0.2,0,0.6,0,1-0.1c-0.2,0.3-1.7,1.7-1.8,2
		c-0.2,0.2,0.6,0.1,0.8,0c0.2,0,0.2,0,0.1,0.3c-0.1,0.3-0.5,1.7-0.6,2c-0.1,0.3,0.1,0.5,0.5,0.3c0.4-0.2,1.5-1,1.8-1.2
		c0.3-0.2,0.3-0.2,0.4,0.4c0.1,0.3,0.3,0.7,0.6,0.2c0.3-0.4,1.1-2.4,1.4-3.2c0,0.4,0.1,0.9,0.1,1.3c0,0.4,0.3,0.4,0.5,0.1
		c0.2-0.3,1.1-1.4,1.7-2.2l-0.7-3.3L123.1,196.4z"/>
	<path class="st4" d="M148.1,200.1c0.5,0.6,1.5,2,1.7,2.3c0.2,0.3,0.4,0.2,0.5,0c0.1-0.2,0.2-0.5,0.3-0.9c0.2,0.3,0.8,1.2,1,1.4
		c0.2,0.3,0.3,0.3,0.4,0c0.1-0.4,0.1-0.4,0.4-0.2c0.3,0.2,1.3,0.9,1.6,1.1c0.3,0.2,0.5,0.1,0.5-0.3c-0.1-0.4-0.3-1.6-0.4-1.9
		c-0.1-0.3-0.1-0.3,0.2-0.3c0.7,0.1,0.6-0.2,0.3-0.6c-0.3-0.4-1.1-1.1-1.5-1.6c0.3,0.2,0.9,0.3,1.2,0.3c0.5,0.1,0.6-0.1,0.3-0.5
		c-0.2-0.3-1.3-1.4-1.9-2.2l-4.1-0.6L148.1,200.1z"/>
	<path class="st4" d="M157.6,177.5c0.7-0.3,2.7-0.7,3.1-0.8c0.3-0.1,0.4-0.2,0.1-0.5c-0.2-0.1-0.4-0.4-0.8-0.6
		c0.4-0.1,1.4-0.5,1.6-0.6c0.3-0.1,0.1-0.3-0.2-0.4c-0.2-0.1-0.2-0.2,0-0.3c0.3-0.2,1.6-1.1,1.9-1.3c0.3-0.2,0.2-0.3-0.2-0.4
		c-0.4-0.1-1.6,0-2,0c-0.4,0-0.4,0-0.3-0.3c0.1-0.5,0.1-0.7-0.3-0.5c-0.5,0.2-1.3,0.7-1.9,1c0.3-0.3,0.4-0.8,0.5-1.1
		c0.2-0.5,0.1-0.5-0.3-0.4c-0.3,0.2-1.8,0.6-2.7,0.9l-1.9,3.8L157.6,177.5z"/>
	<path class="st1" d="M163.2,172.5c-0.4-0.1-1.6,0-2,0c-0.4,0-0.4,0-0.3-0.3c0.1-0.5,0.1-0.7-0.4-0.5c-0.4,0.2-1.3,0.7-1.9,1
		c0.3-0.3,0.4-0.8,0.5-1.1c0.2-0.5,0.1-0.5-0.3-0.4c-0.3,0.1-1.5,0.5-2.4,0.8c-0.4-4.3-5.9-10.6-14.4-10.6c-0.4,0-0.8,0-1.1,0.1
		c0-0.9,0-2.7-0.1-3c0-0.3-0.2-0.4-0.4-0.3c-0.2,0.1-0.5,0.4-0.8,0.6c0-0.4,0.1-1.3,0.1-1.6c0-0.5-0.1-0.5-0.4-0.2
		c-0.2,0.1-0.3,0-0.4-0.2c-0.1-0.3-0.7-1.8-0.8-2.1c-0.1-0.3-0.3-0.3-0.4,0.1c-0.2,0.4-0.6,1.5-0.7,1.9c-0.1,0.4-0.2,0.4-0.5,0.2
		c-0.4-0.3-0.5-0.2-0.5,0.1c0.1,0.5,0.3,1.6,0.4,2.3c-0.2-0.3-0.6-0.7-0.8-1c-0.2-0.3-0.4-0.2-0.4,0.2c0,0.3-0.1,1.4-0.1,2.2
		c-0.1,0-0.1,0-0.2,0c-5.8,0-14.5,4.7-15.3,11.1c-0.8-0.2-2.6-0.8-3-0.9c-0.3-0.1-0.4,0.1-0.4,0.3c0.1,0.2,0.1,0.6,0.3,1
		c-0.4-0.1-1.6-0.5-1.9-0.6c-0.2-0.1-0.3,0.1-0.1,0.4c0.2,0.3,0.1,0.3-0.2,0.3c-0.4,0-1.8,0.1-2.2,0.1c-0.4,0-0.3,0.2-0.1,0.5
		c0.3,0.3,1.2,1.1,1.5,1.3c0.2,0.2,0.2,0.2,0,0.3c-0.3,0.2-0.4,0.4,0.1,0.5c0.5,0.1,1.6,0.3,2.2,0.4c-0.4,0.2-0.9,0.3-1.2,0.5
		c-0.3,0.1-0.3,0.4,0.1,0.5c0.3,0.1,1.1,0.4,1.9,0.7c-0.7,1.3-1.1,3.3-1.1,6.1c0,7.4,2.8,12.6,7.1,13.6c-0.5,0.8-1.3,1.8-1.4,2
		c-0.2,0.3,0,0.4,0.2,0.5c0.2,0,0.6,0,1-0.1c-0.2,0.3-1.7,1.7-1.8,2c-0.2,0.2,0.6,0.1,0.8,0c0.2,0,0.2,0,0.1,0.3
		c-0.1,0.3-0.5,1.7-0.6,2c-0.1,0.3,0.1,0.5,0.5,0.3c0.4-0.2,1.5-1,1.8-1.2c0.3-0.2,0.3-0.2,0.4,0.4c0.1,0.3,0.3,0.7,0.6,0.2
		c0.3-0.4,1.1-2.4,1.4-3.2c0,0.4,0.1,0.9,0.1,1.3c0,0.4,0.3,0.4,0.5,0.1c0.1-0.2,0.6-0.8,1.1-1.5c1.5,2.9,6.2,4.3,11.1,4.3
		c6.3,0,9-1.5,10-3.3c0.5,0.6,1,1.4,1.2,1.6c0.2,0.2,0.4,0.2,0.5,0c0.1-0.2,0.2-0.5,0.3-0.9c0.2,0.3,0.8,1.2,1,1.4
		c0.2,0.3,0.3,0.3,0.4,0c0.1-0.4,0.1-0.4,0.4-0.2c0.3,0.2,1.3,0.9,1.6,1.1c0.3,0.2,0.5,0.1,0.5-0.3c-0.1-0.4-0.3-1.6-0.4-1.9
		c-0.1-0.3-0.1-0.3,0.2-0.3c0.7,0.1,0.6-0.2,0.3-0.6c-0.3-0.4-1.1-1.1-1.5-1.6c0.3,0.2,0.9,0.3,1.2,0.3c0.5,0.1,0.6-0.1,0.3-0.5
		c-0.2-0.2-1-1.1-1.5-1.8c3.6-1.2,7.6-7,7.6-14.5c0-2.5-1-4.3-2.3-5.4c0.8-0.2,1.9-0.5,2.2-0.5c0.3-0.1,0.4-0.2,0.1-0.5
		c-0.2-0.1-0.4-0.4-0.8-0.6c0.4-0.1,1.4-0.5,1.6-0.6c0.3-0.1,0.1-0.3-0.2-0.4c-0.2-0.1-0.2-0.2,0-0.3c0.3-0.2,1.6-1.1,1.9-1.3
		C163.7,172.7,163.6,172.6,163.2,172.5 M116.2,173.9c0.5,0.2,2.2,0.8,3.4,1.2c-1,0-1.8,0.5-2.4,1.4c-0.5-0.2-1.2-0.4-1.5-0.4
		c0.2-0.1,0.7-0.4,1-0.5c0.4-0.2,0.5-0.5-0.4-0.6c-0.4-0.1-1.8-0.3-1.8-0.3l0.5-0.3c-0.2-0.2-1.2-1-1.9-1.5c0.5,0,1.9,0,2.5-0.1
		l-0.3-0.5c0.3,0.1,1.3,0.4,1.6,0.6c0.3,0.1,0.5-0.1,0.5-0.3c-0.1-0.2-0.1-0.5-0.2-0.9c0.3,0.1,1.5,0.6,2.5,0.8c0,0.1,0,0.2,0,0.2
		c0,0.7,0.2,1.2,0.5,1.8c-1.4-0.4-3.5-0.8-3.8-0.9C115.9,173.3,115.5,173.6,116.2,173.9 M126.5,200.6c-0.1-0.2-0.1-0.7-0.2-1
		c-0.1-0.5-0.6-0.5-0.7,0.1c-0.1,0.3-1.2,2.7-1.2,2.7l-0.2-0.8c-0.5,0.4-1.6,1-2.2,1.5c0.2-0.4,0.6-1.9,0.7-2.5l-0.8,0.1
		c0.2-0.2,1.4-1.6,1.6-1.8c0.2-0.2,0.1-0.4-0.2-0.4c-0.2,0-0.5,0-1,0c0.2-0.2,0.8-1,1.3-1.7c0.3,0,0.6,0.1,0.9,0.1
		c0.5,0,1.2-0.1,2-0.4c-0.9,1.3-2.2,3.2-2.5,3.5c-0.3,0.4-0.1,0.9,0.3,0.2c0.3-0.5,2-2.4,3-3.5c-0.2,1-0.2,1.9,0.1,2.7
		C127.1,199.7,126.7,200.3,126.5,200.6 M138.6,162.8c-0.1-1.4-0.3-3.9-0.3-4.3c0-0.5-0.4-0.8-0.4,0c0,0.6,0,2.6-0.1,4
		c-0.6-1-1.3-1.5-2.1-1.7c0-0.6,0-1.4-0.1-1.7c0.2,0.2,0.5,0.5,0.7,0.7c0.3,0.3,0.7,0,0.5-0.5c-0.1-0.3-0.4-1.9-0.4-1.9l0.5,0.4
		c0.1-0.3,0.6-1.5,0.9-2.3c0.1,0.5,0.6,1.9,0.9,2.5l0.5-0.4c0,0.3-0.1,1.3-0.1,1.6c0,0.3,0.2,0.5,0.4,0.4c0.2-0.1,0.4-0.3,0.8-0.6
		c0,0.3-0.1,1.6,0,2.7C139.4,161.8,139,162.3,138.6,162.8 M153.9,198.7c-0.2,0-0.7-0.1-1-0.2c-0.5-0.1-0.6,0.4-0.1,0.7
		c0.3,0.2,1.4,1.5,1.4,1.5l-0.7-0.1c0.1,0.3,0.4,1.4,0.6,2.3c-0.3-0.4-1.5-1-2.1-1.4l-0.1,0.7c-0.2-0.2-0.7-1.2-0.9-1.4
		c-0.1-0.3-0.4-0.3-0.4-0.1c-0.1,0.2-0.3,0.6-0.4,1c-0.1-0.2-0.5-0.9-1-1.5c0.3-0.9,0.4-1.9,0.3-2.7c0.9,1.1,2.5,2.8,2.8,3.2
		c0.3,0.4,0.8,0.4,0.3-0.2c-0.3-0.4-1.6-2.2-2.4-3.3c0.6,0.3,1.1,0.3,1.7,0.3c0.3,0,0.6,0,0.8-0.1
		C153,197.7,153.7,198.4,153.9,198.7 M160.5,174.4l0.6,0.4c-0.3,0.1-1.3,0.4-1.6,0.5c-0.5,0.1-0.4,0.3-0.1,0.5
		c0.2,0.2,0.5,0.3,0.8,0.6c-0.3,0.1-1.3,0.2-2.2,0.5c-0.7-0.5-1.5-0.8-2.2-0.9c1.7-0.7,3.3-1.5,3.7-1.6c0.5-0.2,0.6-0.6-0.1-0.4
		c-0.5,0.2-2.3,0.8-4,1.3c0.8-0.7,1.2-1.6,1.2-2.6c0.6-0.2,1.7-0.5,2-0.7c-0.1,0.2-0.2,0.6-0.4,0.9c-0.2,0.5-0.2,0.8,0.6,0.3
		c0.3-0.2,1.6-0.8,1.6-0.8l0,0.7c0.3,0.1,1.4,0,2.2,0C162.1,173.2,160.9,173.9,160.5,174.4"/>
	<path class="st0" d="M144.3,190.5c0.4,1,4,4.6,4,7.1c0,4-3.4,5.2-9.5,5.2c-7.8,0-10.8-3.2-10.8-5.3c0-2,2.1-4.9,4-7
		c0.8-0.9-0.4-1.7-1-0.7c-0.6,1.2-3.4,6.2-6.2,6.2c-5.7,0-7.9-8.2-7.9-14.5c0-3.4,1.1-5.6,3.7-5.6c1.2,0,3.9,1.6,8,2.9
		c1.2,0.4,1.9-1,0.3-1.2c-3.8-0.4-8.3-2.3-8.3-4.8c0-5.9,10.7-11.1,14.1-11.1c3.3,0,3.7,5,3.2,11c-0.1,1.1,1.2,1.1,1.2,0
		c-0.2-1.5-0.3-5.4-0.5-7c-0.2-1.5,0.8-3.2,3.4-3.2c6.2,0,13.5,6.6,13.5,10.2c0,2.3-3.8,4.4-8.5,5.3c-1.2,0.2-0.4,1.6,0.6,1.1
		c1.5-0.8,4.9-2.2,7.1-2.2c2.1,0,4.5,1.8,4.5,5.4c0,8.3-4.5,14.4-7.6,14.4c-2.8,0-4.9-3.6-6.5-6.6
		C144.8,189.2,143.9,189.6,144.3,190.5"/>
	<path class="st1" d="M140.3,172.1c0-0.5-0.4-3.9-0.4-4.8c0-2.5,0.7-3.7,2.5-3.7c1.8,0,3.7,3,5.5,3c0.4,0,0.9-0.2,1.1-0.5
		c0.2-0.2,0.6,0,0.5,0.3c-0.1,0.3-0.1,0.8-0.1,1.2c0,2.6,4.7,2.3,4.7,4.6c0,3.1-5.1,4.3-6.8,4.3c-1,0-0.5-0.3-0.2-0.3
		c2.9,0,6.4-2.1,6.4-3.8c0-2.2-5.7-1.9-4.5-5.7c-2.6,1.9-4.3-2.3-6.5-2.3c-1.2,0-1.9,0.7-1.9,3c0,0.8,0.1,4,0.2,4.8
		C140.8,172.8,140.4,172.6,140.3,172.1"/>
	<path class="st1" d="M129.6,176.3c-0.9-0.5-3.8-0.9-4.6-1.2c-2.8-0.9-3-2.4-2.7-3.5c0.5-1.6,4.1-2.6,4.6-4.3c0.1-0.5,0-0.9-0.2-1.2
		c-0.2-0.3,0.1-0.6,0.4-0.4c0.2,0.1,0.8,0.4,1.2,0.5c2.3,0.7,3.9-3.7,6-3c3.4,1.1,1.6,7,1.7,8.5c0,0.6-0.4,0.8-0.4,0.1
		c-0.1-1.4,1.5-7.1-1.5-8c-2.1-0.7-3.2,4.9-6.7,2.5c0.8,3-3.6,3.5-4.2,5.4c-0.4,1.2,0.5,2.3,2.3,2.9c0.7,0.2,3.9,0.9,4.4,1.4
		C130.1,176.3,130.2,176.6,129.6,176.3"/>
	<path class="st1" d="M130.2,187.9c-0.4,0.6-1.8,3.4-2.3,4.1c-1.5,2-3.6,2.3-4.9,1.4c-1.3-0.9-1.4-4.8-2.5-5.6
		c-0.4-0.3-0.8-0.3-1.2-0.2c-0.3,0.1-0.5-0.3-0.3-0.5c0.2-0.2,0.7-0.6,0.9-0.9c1.2-2.1-2.5-4.7-0.9-6.8c1.7-2.3,6.8,0,8.7,1.4
		c0.5,0.4,0.5,0.8,0,0.5c-2.8-1.8-6.8-3.1-8.1-1.4c-1.3,1.8,3.3,4.9,0.1,7.3c3.1,0,2.2,4.5,3.9,5.7c0.9,0.7,2.7,0.4,3.8-0.8
		c0.5-0.6,2.3-3.7,2.6-4.2C130.2,187.1,130.5,187.3,130.2,187.9"/>
	<path class="st1" d="M142.6,191.5c0.3,0.5,2.2,2.7,2.8,3.3c1.7,1.7,1.6,3.6,0.5,4.5c-1.3,1.2-4.9-0.3-6.4,0.9
		c-0.3,0.2-0.5,0.8-0.5,1.1c-0.1,0.5-0.5,0.4-0.6,0.1c-0.1-0.3-0.5-0.9-0.6-1.1c-1.4-1.9-5.3,0.3-6.8-1.5c-1.8-2.1,0.9-6,2.4-7.3
		c0.4-0.4,0.9-0.2,0.4,0.2c-2.6,2.2-3.3,5.3-2.5,6.5c1.3,1.8,6.2-1.4,7.3,2.6c1.2-3.2,5-0.9,6.6-2.1c0.9-0.7,0.9-2.1-0.2-3.5
		c-0.5-0.6-2.6-3.2-2.8-3.6C142,191.3,142.3,191,142.6,191.5"/>
	<path class="st1" d="M148.6,180.2c1.4-0.1,3.2-0.5,4.2-1c2.2-1.1,3.8-0.4,4.3,1.3c0.4,1.5-1.3,4.7-0.8,6.3c0.1,0.4,0.6,0.8,0.9,0.9
		c0.2,0.1,0.2,0.6,0,0.6c-0.3,0-0.9,0.1-1.3,0.2c-2.3,0.8-1.2,4.9-3.4,5.6c-3.1,1-5.8-3.7-6.1-5.1c-0.2-0.9,0.1-0.8,0.3-0.4
		c1.2,3.1,3.8,5.3,5.5,4.8c2.1-0.7,0.4-5.5,4.4-5.6c-2.4-2,0.5-5.3-0.1-7.2c-0.4-1.3-1.6-1.7-3.4-0.9c-1.6,0.7-3.5,0.8-4.5,0.8
		C147.9,180.5,147.7,180.3,148.6,180.2"/>
	<path class="st1" d="M153.7,186.7c-0.4-0.3-6.3-2-7.8-2.3c1.4,0.2,5.9-0.6,7-1.3c0.3-0.2,0.3-0.7-0.2-0.5c-0.8,0.2-4.5,1.3-6.9,1.4
		c0.2-0.7,0.4-1.5,0.4-2.3c0-1.9-0.9-3.8-2.3-5.3c-0.2-0.2-0.4-0.4-0.6-0.5c2-1.6,5.2-2.6,6-2.7c0.6-0.1,0.8-0.7,0.1-0.6
		c-0.8,0-4.7,1.2-6.4,3.1c0,0,0,0,0,0c1-1.5,3.8-5.7,4.3-6.2c0.6-0.6,0-0.9-0.4-0.6c-0.3,0.2-3.5,4.9-4.4,6.5c0,0,0,0,0,0
		c0.6-1.5,1.1-5.6,0.9-6.9c-0.1-0.4-0.5-0.5-0.5,0c0,0.8-0.2,4.3-0.7,6.7c-1.2-0.6-2.8-0.9-4.4-0.9c-1.5,0-2.7,0.4-3.7,1.1
		c-1.2-2.4-1.1-6.4-0.9-7.2c0.1-0.6-0.4-0.9-0.6-0.3c-0.2,0.8-0.3,5.3,1.2,7.4c-0.7-1-4.5-5.7-4.8-6.4c-0.4-0.7-0.8-0.3-0.7,0.1
		c0.1,0.4,3.9,5.3,5,6.4c-1-1-5.1-2.9-6.4-3.1c-0.4-0.1-0.6,0.4-0.2,0.5c0.8,0.3,4.9,1.9,6.7,3.1c-0.5,0.4-1,0.9-1.4,1.4
		c-1.2,1.3-1.7,3.1-1.7,5.3c0,0.5,0.1,1,0.1,1.5c-2.7,0.1-6.4-1.8-7.1-2.3c-0.5-0.4-0.9-0.1-0.5,0.3c0.6,0.6,4.6,2.7,7.1,2.2
		c-1.2,0.2-7,1.4-7.8,1.5c-0.8,0.1-0.6,0.6-0.2,0.7c0.4,0.1,6.5-1.2,7.9-1.6c-1.3,0.4-4.9,3.3-5.7,4.4c-0.2,0.3,0,0.7,0.4,0.4
		c0.7-0.6,4-3.7,5.9-4.8c0.5,1.6,1.7,3,3.6,3.9c1,0.4,2.2,0.9,3.5,1c-0.6,2.8-2.8,6-3.4,6.5c-0.5,0.4-0.2,1,0.3,0.6
		c0.6-0.5,3.4-4.1,3.3-6.7c0,1.2,0.3,7.2,0.1,8c-0.1,0.8,0.5,0.7,0.6,0.3c0.1-0.4-0.1-6.6-0.3-8.1c0.2,1.4,2.4,5.4,3.4,6.3
		c0.3,0.3,0.7,0.1,0.4-0.3c-0.9-1.3-2.9-4.2-3.6-6.6c2-0.1,4.9-1.2,6-3.2c0.3-0.5,0.5-1,0.8-1.5c2.3,1.4,4.4,4.4,4.8,5.1
		c0.3,0.6,0.9,0.5,0.7-0.1c-0.3-0.8-2.9-4.5-5.3-5.2c1.2,0.4,6.9,2,7.6,2.3C154,187.6,154.1,186.9,153.7,186.7"/>
	<path class="st5" d="M138.1,180.7c0.8,0,1.3,0.7,1.3,1.1c0,0.7-0.6,1.2-1.2,1.2c-0.5,0-1.2-0.5-1.2-1.2
		C137.1,181.2,137.6,180.7,138.1,180.7"/>
	<path class="st5" d="M135.1,180c0.7,0,1,0.8,1,1.2c0,0.6-0.6,1.2-1.1,1.2c-0.5,0-0.9-0.6-0.9-1.1C134.1,180.6,134.6,180,135.1,180"
		/>
	<path class="st5" d="M135.8,183.1c0.7,0,1,0.6,1,1c0,0.6-0.4,1.1-0.9,1.1c-0.5,0-1.3-0.4-1.3-0.9
		C134.6,183.7,135.4,183.1,135.8,183.1"/>
	<path class="st5" d="M139.1,184.3c0.7,0,1,0.6,1,1c0,0.6-0.4,1.1-0.9,1.1c-0.5,0-1.1-0.5-1.1-1.1
		C138.2,184.8,138.7,184.3,139.1,184.3"/>
	<path class="st5" d="M141.2,182.2c0.7,0,1,0.6,1,1c0,0.6-0.4,1.1-0.9,1.1c-0.5,0-1.1-0.5-1.1-1.1
		C140.3,182.7,140.8,182.2,141.2,182.2"/>
	<path class="st5" d="M140.6,178.7c0.7,0,1.2,0.7,1.2,1.1c0,0.6-0.4,1.1-0.9,1.1c-0.5,0-1.1-0.5-1.1-1.1
		C139.8,179.3,140.1,178.7,140.6,178.7"/>
	<path class="st5" d="M143.9,178.7c0.7,0,1,0.6,1,1c0,0.6-0.4,1.1-0.9,1.1c-0.5,0-1-0.5-1-1C143,179.2,143.5,178.7,143.9,178.7"/>
	<path class="st5" d="M141.4,175.8c0.7,0,1,0.6,1,1c0,0.6-0.4,1.1-0.9,1.1c-0.5,0-1-0.5-1-1C140.5,176.3,141,175.8,141.4,175.8"/>
	<path class="st5" d="M144.1,182.6c0.7,0,1,0.6,1,1c0,0.6-0.5,1.2-1,1.2c-0.5,0-0.9-0.6-0.9-1.2C143.2,183,143.7,182.6,144.1,182.6"
		/>
	<path class="st5" d="M141.9,185.8c0.7,0,1.4,0.5,1.4,0.9c0,0.6-0.7,1.4-1.2,1.4c-0.5,0-1.1-0.3-1.1-0.8
		C140.9,186.7,141.5,185.8,141.9,185.8"/>
	<path class="st5" d="M137.4,186.8c0.7,0,1.5,0.8,1.5,1.2c0,0.6-0.6,1-1.1,1c-0.5,0-1-0.5-1-1C136.8,187.4,137,186.8,137.4,186.8"/>
	<path class="st5" d="M134.1,185.8c0.7,0,1.3,0.6,1.3,0.9c0,0.6-0.7,1.1-1.2,1.1c-0.5,0-1-0.5-1-1
		C133.2,186.2,133.6,185.8,134.1,185.8"/>
	<path class="st5" d="M132.2,182.6c0.7,0,1,0.6,1,1c0,0.6-0.4,1.1-0.9,1.1c-0.5,0-1-0.5-1-1C131.3,183,131.7,182.6,132.2,182.6"/>
	<path class="st5" d="M132.5,178.6c0.7,0,1,0.6,1,1c0,0.6-0.6,1.2-1.1,1.2c-0.5,0-0.8-0.6-0.8-1.2
		C131.6,179,132.1,178.6,132.5,178.6"/>
	<path class="st5" d="M138.2,175c0.7,0,1,0.6,1,1c0,0.6-0.4,1.1-0.9,1.1c-0.5,0-1-0.5-1-1C137.3,175.4,137.7,175,138.2,175"/>
	<path class="st5" d="M134.6,176c0.7,0,1,0.6,1,1c0,0.6-0.4,1.1-0.9,1.1c-0.5,0-1-0.5-1-1C133.7,176.4,134.1,176,134.6,176"/>
	<path class="st5" d="M137.4,177.8c0.7,0,1,0.6,1,1c0,0.6-0.4,1.1-0.9,1.1c-0.5,0-1.1-0.5-1.1-1.1
		C136.5,178.2,136.9,177.8,137.4,177.8"/>
	<path class="st1" d="M138.2,44.1c4,0,5.6,2.6,3.9,6.5c0.8,0,1.1-0.8,1.6-2.3c2.8,1.1,3.2,4.3,0.9,6.3c1.4-0.7,2.6-0.6,3.5,0.1
		c-1.1,0.7-1.5,1.3-1.4,1.9c0.9-0.6,1.6-1.3,3.3-1.3c1.8,0,3.6,1.2,3.6,4c0,4.4-2.7,4.8-6.2,4c0,0.2,0.6,1,1.2,1.3
		c-2.8,0.8-6.2,0.1-8.6-1.3c1.3,4.3,8,6.1,12.9,2c2,5.2,10.1,6,13.8,1.6c-3.4,1.6-7.1,0.7-8.9-1c0.6-0.2,1.8-0.7,2.3-1.3
		c-2.8,0-4-1-4-3.2c0-2.1,2.2-4.4,4.7-4.4c1.8,0,2.7,1.3,3.4,2.8c0.3-0.6,0.4-2.1,0.2-3.2c3.2-0.1,3.9,1.9,4.4,3.1
		c1-4.2,3.8-7.2,10-6.1c-1,1-1.8,2.1-2.4,3.5c0.8-0.7,1.8-1.5,3.9-1.5c2.7,0,4.2,1.9,4.2,3.7c0,2-1.2,3.3-2.2,4
		c-1.3-2.3-3-2.6-4.3-2.6c-3.5,0-5.1,1.5-5.5,2.8c1.1,2.1-0.2,3.7-2.5,3.5c-0.4,0.7-2.9,5.2-3.7,6.2c0.5,1.6,0.4,3.6-0.8,5.4
		c-0.1,0.4-0.3,2.1-0.3,2.5c0.3,0.2,0.8,0.6,0.8,1.2c0,3.5-12.5,4.8-28.1,4.8c-8.1,0-28.1-0.9-28.1-4.6c0-0.6,0.3-1,0.8-1.4
		c-0.1-0.2-0.2-2.2-0.3-2.5c-1.1-1.8-1.1-3.7-0.5-5.2c-0.8-1-3.5-5.7-3.9-6.4c-2.9,0-3.3-1.9-2.3-3.6c-1.3-1.5-3-2.8-5.5-2.8
		c-1.8,0-3.1,0.4-4.3,2.2c-0.8-0.6-1.9-1.6-1.9-3.6c0-2.2,2-3.6,3.8-3.6c1.9,0,3.1,0.8,4.1,1.9c-0.4-1.2-1.5-3-2.4-3.9
		c6-1,8.8,2.2,9.7,6.4c0.6-1.2,1.5-3.5,4.7-3.4c-0.2,1.2-0.3,2.2,0,3c0.8-1.2,1.5-2.6,3.2-2.6c2.3,0,4.9,2.8,4.9,4.8
		c0,2.1-1.5,3-4.5,2.8c0.5,0.7,1.3,1.1,2.3,1.4c-1.7,1.8-5.1,2.3-8.7,0.9c4.1,4.8,11.9,3.5,13.8-1.5c4.4,4.1,11.8,2.4,13.3-2.1
		c-2.6,1.7-5.9,2-8.7,1.5c0.5-0.4,1-1,1.1-1.3c-3.8,1-6-0.1-6-3.9c0-2.2,1.6-4,3.4-4c1.2,0,2.4,0.4,3.4,1.2c0.1-0.6-0.2-1.2-1.3-1.9
		c0.8-0.6,1.9-0.8,3.3-0.2c-2.1-1.8-1.9-5.2,1.1-6.3c0.4,1.5,0.8,2.4,1.5,2.5C132.6,46.6,134.2,44.1,138.2,44.1"/>
	<path class="st5" d="M100.1,58.8c-1.2-2-2.7-2.4-3.9-2.4c-1.7,0-3.1,1.4-3.1,2.9c0,0.8,0.3,1.5,0.7,1.8
		C94.5,60.2,95.9,58.4,100.1,58.8"/>
	<path class="st5" d="M182.6,61.2c0.4-0.4,0.7-1.3,0.7-2c0-1.6-1.3-2.8-3.2-2.9c-1.9,0-2.9,0.6-4,2.2
		C180.4,58.3,181.7,59.8,182.6,61.2"/>
	<path class="st6" d="M138,86c11.7,0.1,26.4-1.2,26.4-3.7c0-1.6-12.1-4.2-26.3-4.2c-14.4,0-26.1,2.6-26.1,4.3
		C112,83.8,124.3,85.9,138,86"/>
	<path class="st5" d="M138,86c11.7,0.1,26.4-1.2,26.4-3.7c0-1.6-12.1-4.2-26.3-4.2c-14.4,0-26.1,2.6-26.1,4.3
		C112,83.8,124.3,85.9,138,86"/>
	<path class="st5" d="M106.5,66c0.5,0.8,3.9,6.3,4.4,6.9c1.5,0.3,3.9,0.6,4.7,0.8c0.9,0.2,1.3,1.7,0.5,2.2c-0.8,0.5-3.8,2.8-4.3,3.1
		c0,0.4,0.1,1.2,0.2,1.5c6.8-2.5,15.8-3.4,26.4-3.4c12.8,0,20.4,1.5,26.2,3.5c0.1-0.6,0.2-1,0.2-1.9c-2-1.1-3.8-2.4-4.5-3
		c-0.7-0.6-0.3-1.9,0.4-2.1c1.4-0.4,3.5-0.8,5.2-1.1c0.2-0.2,3.5-5.4,4.1-6.6c0.2-0.6,1-1.9,1.7-2.3c1.3-2.9,4.3-4.1,8.6-3.4
		c-1.5-1-3.8-0.8-4.7-0.6c-0.2,0-0.6,0-0.6-0.4c0.5-2,0.9-3.2,2-4.8c-5.6-0.3-7.4,4.2-7.6,6.9c0,0.3-0.7,0.6-0.8,0.2
		c-0.4-1.7-1.2-3.8-3.3-4.2c0,1.3,0.1,2.3-0.4,3.1c-0.3,0.5-0.9,0.4-1,0.1c-0.7-1.6-1.6-2.6-2.6-2.6c-1.7,0-2.5,1-1.9,1.8
		c0.2,0.3-0.1,0.5-0.5,0.4c-0.8-0.2-1.5,0.1-1.5,1.4c0,1.6,1.4,2.4,3.6,2.1c0.5-0.1,0.7,0.3,0.5,0.7c-0.2,0.4-1.1,1.1-1.7,1.4
		c0.5,0.4,1.8,0.9,3.9,0.9c1.8,0,3.6-0.7,4.3-1.3c0.3-0.3,0.9-0.1,0.6,0.7c-1.4,4-10.9,8.1-16.1,0.7c-4.3,3.2-11.3,2.7-13.5-3.4
		c-0.3-0.7,0.4-1.4,1.2-0.9c0.6,0.4,2.4,1.2,4.2,1.5c0.7,0.1,1.9,0.2,2.6,0.1c-0.3-0.4-0.7-1.1-0.8-1.3c-0.1-0.4,0.3-0.6,0.7-0.3
		c0.5,0.3,0.9,0.6,2.1,0.6c2,0,3.2-1.6,3.2-2.2c0-0.9-0.5-1.1-1.1-1.2c-0.3,0-0.3-0.4-0.1-0.5c0.6-0.3,0.8-0.7,0.8-1.3
		c0-0.7-0.7-1.5-2.1-1.5c-1.1,0-2.2,0.6-2.9,1c-0.2,0.1-0.5,0.1-0.7-0.2c-0.2-0.4-0.2-1.2,0.5-2.2c-0.9-0.2-3.7,0.8-6,3.1
		c-0.4,0.4-0.9-0.5-0.6-0.6c3.2-1.9,5.2-3.9,5.2-5.6c0-1-0.4-1.6-1-2c-0.6,1.3-1.6,2-2.2,2c-0.3,0-0.7-0.2-0.6-0.5
		c0.1-0.4,0.6-1.9,0.6-3c0-1.6-1-2.8-2-2.8c-0.7,0-1.2,0.4-1.3,0.8c-0.1,0.3-0.5,0.3-0.7,0c-0.3-0.6-0.7-0.9-1.3-0.9
		c-1.1,0-2,1.3-2,2.8c0,1.4,0.6,2.8,0.6,3c0,0.3-0.4,0.4-0.7,0.4c-1.1,0-1.8-1-2.1-2c-0.6,0.3-0.9,1.3-0.9,2.1
		c0,1.9,1.7,3.3,5.1,5.6c0.3,0.2-0.1,0.9-0.5,0.6c-2.6-2.1-5.1-3.2-6-3c0.7,1.3,0.5,1.8,0.4,2.2c-0.1,0.2-0.6,0.3-0.8,0.2
		c-0.7-0.4-1.7-0.9-2.6-0.9c-1.5,0-2.3,0.9-2.3,1.9c0,0.2,0.2,0.7,0.8,0.9c0.2,0.1,0.1,0.4-0.1,0.4c-0.6,0.1-0.9,0.6-0.9,1.1
		c0,1.1,1,2,2.5,2c1.2,0,2.2-0.2,2.6-0.6c0.4-0.3,0.8,0,0.6,0.4c-0.1,0.2-0.6,1.2-0.7,1.5c2.2,0.2,4.8-0.3,6.8-1.6
		c0.7-0.5,1.2,0.3,1.1,0.8c-0.8,4.4-8,7.7-13.6,3.6c-5.7,6.8-13.3,3.9-16-0.8c-0.3-0.5-0.2-1.3,0.5-0.7c0.9,0.8,2.5,1.2,4.5,1.2
		c1.7,0,2.8-0.1,3.7-0.7c-0.8-0.4-1.6-1.2-1.8-1.5c-0.2-0.4,0-0.9,0.5-0.8c3,0.4,3.7-0.8,3.7-1.7c0-1.3-0.6-2-1.6-1.7
		c-0.5,0.1-0.8-0.2-0.6-0.4c0.6-0.9-0.1-1.9-1.6-1.9c-1,0-1.7,0.9-2.6,2.1c-0.2,0.3-0.9,0.2-1.1-0.1c-0.4-0.6-0.5-1.6-0.3-2.8
		c-1.9,0.3-3.1,2.3-3.6,4.2c-0.1,0.3-0.8,0.1-0.9-0.2c-0.1-2.3-2.1-7.1-7.3-6.9c1.1,1.5,1.5,2.7,2,4.8c0,0.4-0.5,0.5-0.7,0.4
		c-1.2-0.2-2.5-0.3-4.1,0.5c2.7-0.4,6,0.3,8.1,3.4C105.4,63.7,106.4,64.9,106.5,66"/>
	<path class="st1" d="M137.2,68.6L137.2,68.6c-0.6,0.5-2,1.6-2.8,2.2c-0.3,0.2-0.4,0.5-0.5,0.9c0,0.4,0.1,0.8,0.4,1
		c0.6,0.5,2,1.6,2.8,2.3c0.5,0.4,1.4,0.4,1.8,0c0.4-0.4,2.3-1.7,2.8-2c0.3-0.2,0.5-0.5,0.5-0.9c0-0.4-0.2-0.8-0.5-1
		c-0.5-0.4-2.2-1.7-2.6-2.3c-0.2-0.2-0.5-0.4-0.9-0.4C138.1,68.3,137.6,68.3,137.2,68.6"/>
	<path class="st1" d="M120.9,74.7c-0.1-0.5-0.3-1.7-0.3-2c0.4-0.2,0.7-0.7,0.9-1.2c1.2-0.1,3.9-0.5,5-0.7c0.3,0.4,0.8,0.7,1.4,0.8
		c0.2,0.6,0.3,1.8,0.4,2.3c-0.5,0.3-0.8,0.8-1,1.2c-2.8,0.3-4.7,0.5-5.2,0.6C121.9,75.2,121.6,74.9,120.9,74.7"/>
	<path class="st7" d="M105.3,62.2c-0.1-1.8-1.5-4.9-2.7-5.7c-0.2-0.2-0.6-0.2-0.4,0.1c1.1,1.1,2.1,4,2.4,5.3
		C104.7,62.1,105.3,62.5,105.3,62.2"/>
	<path class="st1" d="M136.8,59.9c0-0.9,0.6-1.7,1.5-1.7c0.9,0,1.4,0.7,1.4,1.7c0,1.5-0.7,1.8-1.5,1.8
		C137.2,61.6,136.8,60.8,136.8,59.9"/>
	<path class="st1" d="M127.9,59.2c0.8-0.1,6.6,0,7.2,0.1c0.6,0.1,0.5,0.7,0.2,0.7c-0.8-0.1-6.6-0.4-7.2-0.4
		C127.5,59.6,127.5,59.2,127.9,59.2"/>
	<path class="st1" d="M138.7,56.5c0,0.3-0.9,0.3-0.9-0.1c0.1-0.7,0.2-7.1,0.2-7.4c0-0.7,0.4-0.7,0.5,0
		C138.6,49.7,138.8,56.1,138.7,56.5"/>
	<path class="st1" d="M141.4,59.2c0.4-0.1,6.5,0.1,7.2,0.1c0.4,0,0.4,0.4,0,0.4c-0.8,0-6.3,0-7,0.2C141,60,140.9,59.3,141.4,59.2"/>
	<path class="st7" d="M114.4,61.8c-0.3,0.2-6.4,2.2-6.8,2.4c-0.3,0.2-0.5-0.4-0.4-0.5c0.2-0.2,6.8-2.1,7-2.2
		C114.5,61.4,114.7,61.6,114.4,61.8"/>
	<path class="st1" d="M171,62.2c0.1-1.8,1.7-4.7,2.4-5.5c0.2-0.2,0.5-0.2,0.4,0.1c-0.9,1.4-1.8,3.9-2.1,5.2
		C171.6,62.1,171,62.5,171,62.2"/>
	<path class="st1" d="M161.9,61.8c0.3,0.2,6,2.1,6.4,2.3c0.3,0.2,0.5-0.4,0.4-0.5c-0.2-0.2-6.4-2-6.6-2.1
		C161.8,61.4,161.6,61.6,161.9,61.8"/>
	<path class="st1" d="M155.1,74.7c0.1-0.5,0.3-1.7,0.3-2c-0.4-0.2-0.7-0.7-0.9-1.2c-1.2-0.1-3.9-0.5-5-0.7c-0.3,0.4-0.8,0.7-1.4,0.8
		c-0.2,0.6-0.3,1.8-0.3,2.3c0.5,0.3,0.8,0.8,1,1.2c2.8,0.3,4.7,0.5,5.2,0.6C154.2,75.1,154.5,74.8,155.1,74.7"/>
	<path class="st1" d="M138.1,79.2c15.5,0.1,23.5,2,23.5,3.2c0,0.8-1.6,1.1-1.8,1.2c-0.3,0.1-0.5-0.4-0.2-0.6
		c0.4-0.2,0.7-0.3,0.7-0.5c0-0.8-7.4-2.3-22.2-2.4c-12.5-0.1-21.7,1.6-21.7,2.6c0,0.2,0.1,0.2,0.5,0.3c0.2,0.1,0.2,0.5,0,0.5
		c-0.8,0-1.8-0.3-1.8-0.8C115,80.7,127.5,79.1,138.1,79.2"/>
	<path class="st5" d="M137.8,69.1c0.1-0.1,0.5-0.1,0.6,0c0.5,0.6,2.3,2,2.8,2.4c0.1,0.1,0.1,0.5,0,0.5c-0.5,0.3-2.5,1.7-3,2.1
		c-0.1,0.1-0.4,0.1-0.6,0c-0.8-0.7-2.1-1.8-2.8-2.3c-0.1-0.1-0.2-0.4,0-0.5C135.6,70.8,137.1,69.7,137.8,69.1"/>
	<path class="st5" d="M111.2,77.8c0.1,0.1,0.3,0.1,0.5-0.1c1.1-0.8,2.8-2.2,3.7-2.7c0.1-0.1,0-0.5-0.2-0.6c-0.3,0-2.8-0.5-4.1-0.7
		c-0.2,0-0.4,0-0.4,0.2C110.2,75,110.3,76.7,111.2,77.8"/>
	<path class="st5" d="M165.4,73.6c-0.1-0.1-0.2-0.1-0.5-0.1c-1.4,0.2-3.8,0.8-4.1,0.9c-0.2,0.1-0.3,0.6-0.1,0.7c1,0.6,2.8,2,3.8,2.5
		c0.1,0.1,0.2,0,0.3,0C165.7,76.9,165.9,74.4,165.4,73.6"/>
	<path class="st5" d="M121.7,74.3c0.3,0.1,0.4,0.2,0.5,0.4c1-0.2,3.4-0.4,4.5-0.5c0.1-0.3,0.3-0.4,0.5-0.5c0-0.5-0.1-1.3-0.3-1.7
		c-0.2,0-0.4-0.1-0.6-0.4c-1.2,0.2-3.3,0.5-4.5,0.6c-0.1,0.2-0.2,0.3-0.4,0.5C121.5,73.1,121.6,73.8,121.7,74.3"/>
	<path class="st5" d="M154.1,74.3c-0.3,0.1-0.4,0.2-0.5,0.4c-1-0.2-3.4-0.4-4.5-0.5c-0.1-0.3-0.3-0.4-0.5-0.5c0-0.5,0.1-1.3,0.3-1.7
		c0.2,0,0.4-0.1,0.6-0.4c1.2,0.2,3.3,0.5,4.5,0.6c0.1,0.2,0.2,0.3,0.4,0.5C154.3,73,154.2,73.8,154.1,74.3"/>
	<path class="st1" d="M175.6,150.7c-0.3-8.2-3.2-42.4-3.4-54.7c0-0.9-0.1-0.9-0.8-0.8c-0.4,0.1-1.1,0.1-2.1,0.2c0,0,0.1-1.1,0-1.4
		c-0.1-0.3-0.1-0.4-0.5-0.3c-0.4,0-1.1,0.1-1.9,0.1c0-1,0-1.9,0-2.8c-1.7,0.6-5.1,0.8-6.6,0.8c-6.1,0-9.6-1.9-14.4-1.9
		c-2.1,0-4.4,0.2-6.7,1.1c-0.7,0.3-1.1,0.1-1.6-0.1c-0.5-0.2-2.4-1-5.3-1c-4.7,0-11.2,2.1-16.8,2.1c-3,0-5.5-0.8-6.8-1.5
		c0,0.7-0.1,1.4-0.1,2.3c-0.7-0.1-1.5-0.1-1.8-0.1c-0.4,0-0.4,0-0.4,0.5c0,0.4,0,0.8-0.1,1.4c-0.4,0-1.8-0.1-2.2-0.2
		c-0.5-0.1-0.5,0-0.5,0.8c0,0.6-4.1,55.4-4.1,56.6c0,1.5,0.1,2,1.8,1.5c3.2-1,18.6-5.8,30.8-4.3c-1,4,13,4,12.4,0.1
		c11.1-1.6,28.3,3.6,29.5,3.8C175.4,152.9,175.7,152.3,175.6,150.7"/>
	<path class="st5" d="M136.5,147.4c-1.6-0.7-4.1-1.4-10.6-1.4c-10.5,0-17.8,3.3-23.1,2.6c-0.3,0-0.5-0.1-0.5-0.5
		c0.8-16.4,2.9-39.8,4-52.6c-0.4,0-1.2-0.1-1.4-0.1c-0.2,0-0.3,0-0.3,0.2c0,0.2-4,54.9-4,55.4c0,0.6,0.1,0.8,0.6,0.7
		c0.5-0.1,13-4.2,24.6-4.2c2.3,0,7,0.4,7.3,0.4c0.3,0,0.2,0.2,0.1,0.4c-0.4,3,11.1,2.6,10.5,0.3c-0.1-0.2-0.1-0.5,0.3-0.6
		c0.4-0.1,3.1-0.5,6.3-0.5c9.1,0,22.8,3.2,23.3,3.3c0.5,0.1,0.6-0.3,0.6-0.7s-3-53.3-3-53.6c0-0.3,0.1-0.5-0.2-0.5c-0.3,0-1,0-1.3,0
		c-0.2,9.9,2.7,51.6,2.7,51.9c0,0.3-0.1,0.3-0.4,0.4c-0.8,0.2-2,0.3-3.3,0.3c-4.5,0-12.6-2.6-20-2.6c-3.3,0-6.9,0.9-8.3,1.5
		C138.9,148.2,138,148.1,136.5,147.4"/>
	<path class="st0" d="M137.8,93c0-0.3-0.2-0.5-0.3-0.7c-0.6-0.5-2.1-1.5-4.5-1.5c-5.9,0-11.5,2.5-17.3,2.5c-2.2,0-3.8-0.4-5.4-0.7
		c-0.2,2.9-3,46.9-3.5,51.9c4.8,0.9,9.9-2.5,20.4-2.5c6.2,0,10.3,2,11,2.4c0.6,0.3,0.8,0.3,1.5-0.1c1.8-0.9,6.1-2.2,11.1-2.2
		c7,0,13.5,3.4,17.5,2.3c0.4-16.8-2.8-37.9-2.7-51.7c-0.8,0.1-3.5,0.4-4.7,0.4c-6.1,0-9.7-2.3-15.1-2.3c-3.2,0-5.2,1.1-5.9,1.6
		c-0.2,0.2-0.3,0.2-0.3,0.6c-0.1,10.7-0.1,39.6-0.5,49.7c0,0.6-1,0.5-1,0C138.2,131.4,137.7,102.6,137.8,93"/>
	<path class="st0" d="M168.4,95c0-0.2-0.1-0.3-0.3-0.3c-0.1,0-0.7,0-1.2,0c0.1,16.2,2.9,39.1,2.4,51.3c-4.5,0.9-11-2.2-19.1-2.2
		c-7.3,0-10.6,1.5-10.9,1.7c-0.3,0.2-0.8,0.1-1.2-0.1c-1.7-0.7-5.7-1.6-11.2-1.6c-11.8,0-15.1,2.6-21.4,2.2
		c0.9-14.4,2.6-40.6,3.2-52.3c-0.3,0-0.6-0.1-0.8-0.1c-0.4,0-0.4,0.1-0.4,0.4c-1.3,14.4-2.8,36.7-4,53.1c0,0.4-0.1,0.4,0.2,0.4
		c6.5,0.8,12-2.4,22.1-2.4c5.3,0,8.8,0.6,11.6,1.7c1,0.4,1.7,0.4,2.8-0.1c2.5-1.1,5.5-1.5,8.4-1.5c9.6,0,17.3,3.3,22.5,2.5
		c0.3,0,0.3-0.2,0.3-0.5C171.4,147.1,168.6,103.1,168.4,95"/>
	<path class="st8" d="M113.1,125.4c-0.6,0-0.9-0.4-1.3-0.4c-0.4,0-0.9,0.1-1.1,0.4c-0.1,0.5-0.5,0.3-0.5-0.1
		c0-0.4,0.3-12.9,0.3-13.3c0-1-0.1-1.3-1.1-1c-0.2,0-0.3-0.4,0-0.6c0.2-0.1,2.5-0.9,2.7-0.9c0.2,0,0.2,0.1,0.2,0.3
		c0,0.3,0,0.7,0,1.3c0.4-0.6,0.9-1,1.5-1.5c0.3-0.2,0.5-0.4,0.8-0.2c1.2,0.7,2.7,3.1,2.6,8.2C117.1,119.3,114.8,125.5,113.1,125.4
		 M113.6,111.1c-0.5,0-0.9,0.5-1.3,1.2c-0.1,3-0.2,7.8-0.5,11.4c1.1,0.3,1,0.7,1.3,0.8c0.2,0,0.3,0,0.5-0.1c1.2-0.9,1.8-3.3,1.8-4.7
		C115.6,114.4,114.4,111.1,113.6,111.1"/>
	<path class="st1" d="M119.6,124.7c-0.1,0.5-0.7,0.3-0.7-0.1c0-0.4-0.2-6.9-0.3-7.4c-0.1-0.8-0.6-0.9-1.1-1c-0.2,0-0.3-0.4,0-0.6
		c0.2-0.1,2.5-1,2.7-1c0.2,0,0.2,0.1,0.2,0.3C120.5,116.4,120.1,122.2,119.6,124.7 M119.7,113.2c-0.2,0.6-0.7,0.3-0.7,0.1
		c0-0.2-0.3-1.1-0.4-1.3c-0.1-0.3-0.4-0.6-0.5-0.6c-0.1,0-0.3-0.1,0-0.3c0.1-0.1,1.5-0.6,1.8-0.7c0.1,0,0.3,0.1,0.2,0.2
		C120.1,110.7,119.8,112.9,119.7,113.2"/>
	<path class="st1" d="M123.3,124.6c-1.2,0-2.1-0.8-2.4-1.1c-0.1-0.1-0.2-0.2-0.1-0.3c0.2-0.1,0.8-1.2,0.9-1.3c0.1-0.1,0.2,0,0.2,0.1
		c0.3,0.9,0.9,1.8,1.7,1.8c0.5,0,1.2-0.8,1.2-1.7c0-1.2-3.5-1.2-3.5-4.2c0-0.9,0.3-2.1,2.1-3.3c0.3-0.2,0.3-0.2,0.4-0.1
		c0,0.1,1.1,0.9,1.7,1.3c0.2,0.1,0.3,0.1,0.2,0.3c-0.1,0.3-0.4,0.6-0.6,0.8c-0.1,0.1-0.4,0.1-0.6,0.1c-0.4-0.2-1.2-0.8-1.4-1.2
		c0-0.1-0.1-0.1-0.1,0c-0.5,0.4-0.5,0.9-0.5,1.5c0,1.6,3.4,1.8,3.4,3.8C125.8,122.3,124.9,124.6,123.3,124.6"/>
	<path class="st1" d="M129.1,124.5c-1.8,0-2.7-2.2-2.7-4.5c0-2.1,1.6-4,2.6-5c0.2-0.3,0.4-0.3,0.5-0.2c0,0.1,1,1.2,1.5,1.6
		c0.1,0.1,0.6,0,0.4,0.3c-0.1,0.3-0.5,0.7-0.8,0.9c-0.2,0.2-0.6,0.2-0.8,0.1c-0.5-0.4-0.7-0.7-1-1.2c0-0.1-0.1-0.1-0.1,0
		c-0.5,0.7-0.7,1.6-0.7,2.4c0,3,0.9,4.3,2,4.3c0.6,0,0.9-0.6,1.3-1.1c0.1-0.2,0.3,0,0.2,0.2C130.8,123.6,130.4,124.5,129.1,124.5"/>
	<path class="st1" d="M134.3,124.5c-1.8,0-2.7-2.2-2.7-4.5c0-2.1,1.3-4,2.2-5c0.2-0.3,0.7-0.3,0.8-0.2c0.5,0.2,2.2,1.6,2.2,2.8
		c0,0.4-2.5,2.6-3.6,3.3c0.3,1.6,1,2.3,1.9,2.3c0.9,0,1.5-0.4,1.9-1c0.1-0.2,0.3,0,0.2,0.2C136.4,123.8,135.6,124.5,134.3,124.5
		 M134,116.1c-0.1-0.1-0.2,0-0.3,0c-0.5,0.8-0.7,1.8-0.7,2.8c0,0.5,0,1,0.1,1.4c0.7-0.6,1.9-1.8,1.9-2.7
		C135.1,117.2,134.5,116.5,134,116.1"/>
	<path class="st8" d="M143.9,125.2c-0.6,0-0.9-0.4-1.3-0.4c-0.4,0-0.9,0-1.1,0.2c-0.1,0.2-0.5,0.4-0.5-0.1c0-0.4-0.1-12.7-0.1-13.1
		c0-0.9-0.3-1.1-1.1-1c-0.2,0-0.4-0.3,0-0.4c0.2-0.1,2.3-1,2.5-1c0.4,0,0.4,0.2,0.4,0.4v1c0.4-0.6,0.8-1,1.4-1.5
		c0.3-0.2,0.5-0.3,0.8-0.2c1.7,0.9,2.9,3.2,2.9,8.6C147.9,120,145.7,125.2,143.9,125.2 M143.9,110.8c-0.4,0-0.8,0.5-1.1,1.1
		c0,2.8,0,7.8-0.2,11.5c1.1,0.2,1.1,0.8,1.4,0.8c0.2,0,0.3,0,0.4-0.2c1.2-1,1.7-3.5,1.7-5.3C146.1,112.7,144.8,110.8,143.9,110.8"/>
	<path class="st1" d="M151.1,124.5c-1.5,0-2.6-2.3-2.6-4.7c0-2.5,1.9-5,3.3-5c1.6,0,2.7,2.5,2.7,4.6
		C154.4,121.5,152.6,124.5,151.1,124.5 M150.9,116c-0.6,0-1,1.1-1,2c0,3.1,1.3,5.1,2,5.1c0.9,0,1.2-0.9,1.2-1.9
		C153.1,118.5,151.8,116,150.9,116"/>
	<path class="st1" d="M157.9,124.5c-1.7,0-2.7-2.4-2.7-4.5c0-2.1,1.3-4,2.5-5c0.5-0.4,0.5-0.4,0.8-0.1c0,0.1,0.8,1.1,1.3,1.5
		c0.1,0.1,0.5,0.1,0.3,0.4c-0.1,0.3-0.4,0.6-0.7,0.8c-0.2,0.2-0.6,0.2-0.8,0.1c-0.5-0.3-0.8-1-1.1-1.5c0-0.1-0.1-0.1-0.1,0
		c-0.5,0.4-0.8,1.2-0.8,2.1c0,3,1,4.8,2.2,4.8c0.6,0,1.1-0.5,1.4-1c0.2-0.2,0.3,0.1,0.2,0.3C159.8,123.5,159.2,124.5,157.9,124.5"/>
	<path class="st1" d="M163.5,124.5c-1.7,0-3-2-3-4.1c0-2.2,1.2-4.3,2.6-5.5c0.3-0.2,0.6-0.1,0.7-0.1c0.9,0.3,2.2,2.2,2.2,3.4
		c0,0.4-2.8,1.9-3.9,2.4c0.4,1.6,1.3,2.4,2.1,2.4c0.8,0,1.5-0.4,1.8-1c0.1-0.2,0.3,0.2,0.2,0.3C165.6,123.6,164.9,124.5,163.5,124.5
		 M163.3,116.3c-0.1-0.1-0.2-0.1-0.3,0c-0.6,0.6-0.9,1.8-0.9,2.7c0,0.5,0,0.9,0.1,1.2c0.8-0.4,2.1-1.2,2.1-1.9
		C164.2,117.4,163.9,116.8,163.3,116.3"/>
	<rect class="st9" width="694.8" height="280.7"/>
</g>
<g>
</g>
<g>
</g>
<g>
</g>
<g>
</g>
<g>
</g>
<g>
</g>
</svg>
